<svg width="171" height="56" viewBox="0 0 171 56" fill="none" xmlns="http://www.w3.org/2000/svg">
<mask id="mask0_0_2527" style="mask-type:luminance" maskUnits="userSpaceOnUse" x="0" y="0" width="171" height="56">
<rect width="171" height="55.2044" fill="white"/>
</mask>
<g mask="url(#mask0_0_2527)">
<path d="M49.4331 39.3503C49.2496 39.3503 49.0915 39.3052 48.9593 39.2143C48.8264 39.1234 48.652 38.9424 48.4359 38.6704C48.0238 38.1528 47.6464 37.5851 47.304 36.9684C48.0217 36.8387 48.3811 36.5129 48.3811 35.9909C48.3811 35.7665 48.3086 35.584 48.1636 35.4439C48.0189 35.3038 47.8302 35.2337 47.5975 35.2337C47.4712 35.2337 47.32 35.2502 47.1448 35.2849V38.4374C47.1448 38.6882 47.1528 38.8519 47.1691 38.9292C47.2059 39.1065 47.2936 39.2337 47.4324 39.3111H46.2086C46.3474 39.2334 46.4351 39.1058 46.4719 38.9282C46.4878 38.8501 46.4962 38.686 46.4962 38.4345V35.6749C46.4962 35.4237 46.4878 35.2593 46.4719 35.1813C46.4351 35.0036 46.3474 34.8764 46.2086 34.7986H47.1448C47.21 34.7986 47.3058 34.7986 47.4324 34.7986C47.5586 34.7986 47.6547 34.7986 47.7199 34.7986C48.132 34.7986 48.4501 34.8871 48.6745 35.0637C48.96 35.2885 49.1029 35.5798 49.1029 35.9382C49.1029 36.2014 49.0047 36.4422 48.8091 36.66C48.6131 36.8778 48.3623 37.0279 48.0564 37.1102C48.5379 37.7964 48.9225 38.2989 49.2101 38.6184C49.4976 38.9379 49.7696 39.1689 50.027 39.3111C49.7085 39.3371 49.5108 39.3503 49.4331 39.3503Z" fill="#616161"/>
<path fill-rule="evenodd" clip-rule="evenodd" d="M51.428 36.4673C50.967 36.4673 50.6836 36.723 50.5775 37.2335H52.248C52.1582 36.723 51.8848 36.4673 51.428 36.4673ZM52.5782 39.2398C52.3132 39.3481 52.0156 39.4021 51.685 39.4021C51.1467 39.4021 50.7069 39.2464 50.3666 38.9345C50.0256 38.623 49.8553 38.2207 49.8553 37.7267C49.8553 37.2162 50.0308 36.7919 50.3818 36.4544C50.6548 36.1901 51.0138 36.0583 51.4585 36.0583C51.8827 36.0583 52.2334 36.1991 52.5109 36.4801C52.7884 36.7617 52.9272 37.119 52.9272 37.5515V37.6622H50.5532C50.5691 38.0625 50.6916 38.3768 50.9202 38.605C51.1488 38.8336 51.4564 38.9477 51.8439 38.9477C52.248 38.9477 52.6087 38.8267 52.9272 38.5843L52.5782 39.2398Z" fill="#616161"/>
<path d="M55.4815 39.1135C55.2224 39.306 54.8769 39.4021 54.4444 39.4021C54.1468 39.4021 53.8571 39.3459 53.5755 39.2335L53.3552 38.5582C53.7874 38.8395 54.1894 38.98 54.5606 38.98C54.7607 38.98 54.9269 38.9345 55.0594 38.844C55.1919 38.7531 55.2582 38.6383 55.2582 38.4998C55.2582 38.3657 55.2092 38.2616 55.1114 38.1881C55.0337 38.1274 54.8277 38.0344 54.4933 37.9088C54.1222 37.77 53.8682 37.6351 53.7316 37.5034C53.5949 37.3711 53.5266 37.197 53.5266 36.9802C53.5266 36.6903 53.6386 36.4637 53.863 36.3018C54.0875 36.1395 54.3976 36.0583 54.7933 36.0583C55.0705 36.0583 55.3112 36.0884 55.5152 36.1488V36.7336C55.2377 36.556 54.9727 36.4672 54.7198 36.4672C54.5443 36.4672 54.4014 36.5033 54.2914 36.5744C54.1815 36.6458 54.1263 36.7378 54.1263 36.8506C54.1263 36.9455 54.1763 37.0289 54.2762 37.1003C54.3761 37.1717 54.5547 37.2508 54.8117 37.3371C55.2072 37.4718 55.4763 37.6057 55.6192 37.74C55.7864 37.9001 55.87 38.0993 55.87 38.3372C55.87 38.6619 55.7406 38.9207 55.4815 39.1135Z" fill="#616161"/>
<path d="M57.6998 39.3636C57.6262 39.3892 57.5489 39.4021 57.467 39.4021C57.2058 39.4021 56.9859 39.3025 56.8062 39.1034C56.6963 38.9778 56.6248 38.8242 56.5922 38.6428C56.5801 38.5516 56.5738 38.3764 56.5738 38.1166V36.6036H56.1333V36.357C56.3536 36.3181 56.5312 36.2182 56.6654 36.0583C56.8246 35.872 56.904 35.5907 56.904 35.214V35.1298H57.1552V36.1488H57.6568C57.8444 36.1488 57.9707 36.136 58.0362 36.1103V36.7267C57.9464 36.6449 57.8118 36.6036 57.6321 36.6036H57.1552V38.058C57.1552 38.3871 57.1937 38.6016 57.2714 38.701C57.3897 38.8569 57.5548 38.9345 57.7671 38.9345C57.8527 38.9345 57.9422 38.9151 58.0362 38.8766L57.6998 39.3636Z" fill="#616161"/>
<path fill-rule="evenodd" clip-rule="evenodd" d="M127.869 35.3766L127.209 37.1685H128.524L127.869 35.3766ZM128.947 39.3111C129.101 39.2117 129.179 39.121 129.179 39.0385C129.179 38.9869 129.142 38.8589 129.069 38.6556L128.689 37.6101H127.056L126.688 38.6556C126.64 38.7939 126.615 38.9109 126.615 39.0063C126.615 39.1228 126.693 39.2244 126.848 39.3111H125.661C125.807 39.2117 125.915 39.1079 125.985 38.9996C126.054 38.8911 126.146 38.6883 126.26 38.3892L127.398 35.3766C127.447 35.2465 127.472 35.1429 127.472 35.0648C127.472 34.9566 127.406 34.8678 127.276 34.7987H128.304L129.662 38.3892C129.764 38.6618 129.858 38.8613 129.944 38.9869C130.029 39.1121 130.144 39.2206 130.286 39.3111H128.947Z" fill="#616161"/>
<path d="M132.608 39.1135C132.349 39.306 132.003 39.4021 131.571 39.4021C131.273 39.4021 130.984 39.3459 130.702 39.2335L130.482 38.5582C130.914 38.8395 131.316 38.98 131.687 38.98C131.887 38.98 132.053 38.9345 132.186 38.844C132.318 38.7531 132.385 38.6383 132.385 38.4998C132.385 38.3657 132.336 38.2616 132.238 38.1881C132.16 38.1274 131.955 38.0344 131.62 37.9088C131.249 37.77 130.995 37.6351 130.858 37.5034C130.721 37.3711 130.653 37.197 130.653 36.9802C130.653 36.6903 130.765 36.4637 130.99 36.3018C131.214 36.1395 131.524 36.0583 131.92 36.0583C132.197 36.0583 132.438 36.0884 132.642 36.1488V36.7336C132.364 36.556 132.1 36.4672 131.846 36.4672C131.671 36.4672 131.528 36.5033 131.418 36.5744C131.308 36.6458 131.253 36.7378 131.253 36.8506C131.253 36.9455 131.303 37.0289 131.403 37.1003C131.503 37.1717 131.681 37.2508 131.938 37.3371C132.334 37.4718 132.603 37.6057 132.746 37.74C132.913 37.9001 132.997 38.0993 132.997 38.3372C132.997 38.6619 132.867 38.9207 132.608 39.1135Z" fill="#616161"/>
<path d="M135.466 39.1135C135.207 39.306 134.861 39.4021 134.428 39.4021C134.131 39.4021 133.841 39.3459 133.56 39.2335L133.34 38.5582C133.772 38.8395 134.174 38.98 134.545 38.98C134.744 38.98 134.911 38.9345 135.044 38.844C135.176 38.7531 135.243 38.6383 135.243 38.4998C135.243 38.3657 135.193 38.2616 135.096 38.1881C135.018 38.1274 134.812 38.0344 134.478 37.9088C134.107 37.77 133.852 37.6351 133.716 37.5034C133.579 37.3711 133.511 37.197 133.511 36.9802C133.511 36.6903 133.623 36.4637 133.847 36.3018C134.072 36.1395 134.382 36.0583 134.777 36.0583C135.055 36.0583 135.295 36.0884 135.499 36.1488V36.7336C135.222 36.556 134.957 36.4672 134.704 36.4672C134.528 36.4672 134.386 36.5033 134.276 36.5744C134.166 36.6458 134.11 36.7378 134.11 36.8506C134.11 36.9455 134.16 37.0289 134.26 37.1003C134.36 37.1717 134.539 37.2508 134.796 37.3371C135.192 37.4718 135.461 37.6057 135.603 37.74C135.771 37.9001 135.854 38.0993 135.854 38.3372C135.854 38.6619 135.725 38.9207 135.466 39.1135Z" fill="#616161"/>
<path d="M138.577 39.3112V38.8633C138.422 39.0708 138.279 39.2131 138.149 39.2887C138.018 39.3643 137.849 39.4021 137.641 39.4021C137.196 39.4021 136.874 39.2422 136.674 38.9216C136.552 38.7271 136.491 38.4368 136.491 38.0517V36.8245C136.491 36.6036 136.478 36.4599 136.454 36.3926C136.429 36.3256 136.36 36.2445 136.246 36.1488H136.686C136.866 36.1488 136.994 36.1057 137.072 36.019V37.9283C137.072 38.2443 137.125 38.4718 137.231 38.6103C137.361 38.7833 137.553 38.8696 137.806 38.8696C138.03 38.8696 138.211 38.7951 138.347 38.6456C138.484 38.4964 138.552 38.2987 138.552 38.0517V36.8245C138.552 36.6036 138.54 36.4586 138.516 36.3895C138.491 36.3201 138.422 36.24 138.308 36.1488H138.761C138.932 36.1488 139.056 36.1057 139.134 36.019V38.6359C139.134 38.8569 139.146 39.0007 139.171 39.0677C139.195 39.1353 139.265 39.2162 139.379 39.3112H138.577Z" fill="#616161"/>
<path d="M141.392 36.6035C141.143 36.6035 140.957 36.6969 140.835 36.8824C140.745 37.0169 140.7 37.2248 140.7 37.5061V38.6358C140.7 38.8568 140.712 39.0007 140.737 39.0677C140.761 39.1353 140.83 39.2161 140.945 39.3112H139.874C139.988 39.2161 140.058 39.1353 140.082 39.0677C140.107 39.0007 140.119 38.8568 140.119 38.6358V36.8245C140.119 36.6035 140.107 36.4599 140.082 36.3926C140.058 36.3256 139.988 36.2445 139.874 36.1488H140.321C140.496 36.1488 140.623 36.1057 140.7 36.019V36.5841C140.875 36.2333 141.133 36.0583 141.471 36.0583C141.528 36.0583 141.603 36.067 141.697 36.0843V36.7138C141.624 36.6403 141.522 36.6035 141.392 36.6035Z" fill="#616161"/>
<path fill-rule="evenodd" clip-rule="evenodd" d="M143.496 36.4673C143.035 36.4673 142.752 36.723 142.646 37.2335H144.316C144.226 36.723 143.953 36.4673 143.496 36.4673ZM144.647 39.2398C144.382 39.3481 144.084 39.4021 143.753 39.4021C143.215 39.4021 142.775 39.2464 142.435 38.9345C142.094 38.623 141.924 38.2207 141.924 37.7267C141.924 37.2162 142.099 36.7919 142.45 36.4544C142.723 36.1901 143.082 36.0583 143.527 36.0583C143.951 36.0583 144.302 36.1991 144.579 36.4801C144.857 36.7617 144.995 37.119 144.995 37.5515V37.6622H142.621C142.637 38.0625 142.76 38.3768 142.988 38.605C143.217 38.8336 143.525 38.9477 143.912 38.9477C144.316 38.9477 144.677 38.8267 144.995 38.5843L144.647 39.2398Z" fill="#616161"/>
<path d="M148.012 39.3112V37.7565C148.012 37.5321 148.006 37.3805 147.994 37.3031C147.969 37.1474 147.914 37.0094 147.828 36.8884C147.645 36.6378 147.4 36.5126 147.094 36.5126C146.817 36.5126 146.589 36.6174 146.412 36.827C146.235 37.0364 146.146 37.3024 146.146 37.6264C146.146 37.9977 146.252 38.3077 146.464 38.556C146.676 38.8041 146.943 38.9283 147.265 38.9283C147.457 38.9283 147.647 38.8655 147.835 38.7399L147.461 39.3567C147.355 39.3872 147.247 39.4021 147.137 39.4021C146.746 39.4021 146.421 39.3112 146.164 39.1297C145.711 38.8093 145.485 38.3459 145.485 37.74C145.485 37.2682 145.631 36.8695 145.922 36.5453C146.214 36.2206 146.572 36.0583 146.996 36.0583C147.367 36.0583 147.706 36.1922 148.012 36.4606V35.4738C148.012 35.2528 148 35.1078 147.975 35.0384C147.951 34.9695 147.882 34.8892 147.767 34.7987H148.214C148.389 34.7987 148.516 34.7554 148.593 34.6687V38.6359C148.593 38.8569 148.605 39.0007 148.63 39.0677C148.654 39.1353 148.724 39.2162 148.838 39.3112H148.012Z" fill="#616161"/>
<path fill-rule="evenodd" clip-rule="evenodd" d="M49.1831 11.65C49.3312 14.1589 50.4974 15.8798 50.8113 16.4927C52.2206 19.243 54.5783 21.0158 57.8298 21.8672C62.7592 23.0353 65.0628 21.7942 66.6119 20.8746C65.0822 12.6983 59.8424 -3.73332 51.3711 3.99702C49.6628 5.55551 49.0311 9.07902 49.1831 11.65ZM78.906 5.457C79.4728 5.80734 79.5765 5.32068 80.2106 5.31513C80.3334 5.31374 80.4388 5.69114 80.3389 5.82087C79.5502 6.8476 78.1211 7.21424 76.7641 7.65512C76.5699 7.7179 76.1501 7.37485 76.1453 7.15042C76.1127 5.58638 76.4981 4.4535 76.7981 3.23322C76.8217 3.13783 76.6042 2.93421 76.4707 2.93387C73.6388 2.92832 70.254 4.61584 70.0702 8.31521C70.0605 8.50564 70.3366 8.95692 70.4712 8.98155C73.7963 9.58823 77.1165 9.14076 79.9647 9.70859C80.2984 9.77553 81.2328 10.283 81.5693 11.2584C84.2888 19.1424 73.4716 28.6407 67.008 21.8672C63.2102 24.5215 56.6831 24.5553 52.6715 22.2235C51.9466 21.8018 49.9986 19.5763 49.5133 18.6793C49.0946 17.9048 48.7079 17.1209 48.5636 16.7185C48.2115 15.7327 48.0283 14.2755 47.9718 13.4576C48.0679 7.74357 49.6128 2.33517 54.0906 1.54431C66.1662 -0.588249 64.4023 13.282 69.2748 20.9327C69.5072 21.2981 70.1812 22.9184 73.0737 23.0631C77.675 23.2929 81.5714 16.485 79.9258 13.4576C78.1977 10.2781 70.7476 12.9518 68.6435 11.4301C68.5075 11.3316 68.2817 10.8585 68.1565 10.4544C68.0944 10.2542 68.118 9.49908 68.1555 9.27569C68.9873 4.34077 73.7619 1.545 79.5859 1.19397C79.2768 2.62689 79.076 3.99702 78.906 5.457Z" fill="#7BAFD4"/>
<path fill-rule="evenodd" clip-rule="evenodd" d="M88.5844 3.84368C88.5844 3.84368 88.8446 4.01712 88.2375 4.97101L82.254 18.7591C82.254 18.7591 79.9127 25.6098 84.5087 23.0083L86.243 21.4474C86.243 21.4474 86.4165 20.4934 85.3759 21.4474C85.3759 21.4474 82.9478 23.1818 84.1618 20.32L91.2727 3.49681C91.2727 3.49681 91.8797 1.24216 90.1453 2.28277C90.1453 2.28277 88.8446 3.23666 87.0235 3.32338C87.0235 3.32338 86.5032 3.58353 86.9368 4.01712C86.9368 4.01712 88.1508 4.01712 88.5844 3.84368Z" fill="#7BAFD4"/>
<path fill-rule="evenodd" clip-rule="evenodd" d="M91.9546 14.117C91.8436 14.0819 91.6899 13.8533 91.8308 13.6397C92.3344 12.8759 93.7382 11.128 96.0421 11.128C96.0421 11.128 97.5163 11.128 96.1288 12.7756C96.1288 12.7756 94.1635 14.8197 91.9546 14.117ZM93.7337 10.7652C92.0989 11.8724 87.9496 15.1673 87.2764 20.4546C87.2386 20.7505 87.2514 21.5938 87.3974 21.8946C87.8366 22.7972 89.1047 24.3091 92.2265 21.9678C92.2265 21.9678 97.5163 18.2388 96.7359 15.9842C96.7359 15.9842 96.3023 15.4639 95.9554 17.0248C95.9554 17.0248 93.7875 21.5342 90.3188 21.4474C90.3188 21.4474 88.9313 21.6209 89.7117 18.5857C89.7117 18.5857 90.232 16.5045 91.0125 15.2904C91.0125 15.2904 96.3897 15.5277 98.611 11.6979C98.7158 11.5168 98.9281 10.9788 98.9 10.7759C98.8164 10.1665 98.2659 9.0714 95.1982 10.0621C94.9474 10.1429 94.143 10.488 93.7337 10.7652Z" fill="#7BAFD4"/>
<path fill-rule="evenodd" clip-rule="evenodd" d="M102.014 14.117C101.903 14.0819 101.749 13.8533 101.89 13.6397C102.394 12.8759 103.797 11.128 106.101 11.128C106.101 11.128 107.576 11.128 106.188 12.7756C106.188 12.7756 104.223 14.8197 102.014 14.117ZM103.793 10.7652C102.158 11.8724 98.0088 15.1673 97.3356 20.4546C97.2978 20.7505 97.3106 21.5938 97.4566 21.8946C97.8958 22.7972 99.1639 24.3091 102.286 21.9678C102.286 21.9678 107.576 18.2388 106.795 15.9842C106.795 15.9842 106.361 15.4639 106.015 17.0248C106.015 17.0248 103.847 21.5342 100.378 21.4474C100.378 21.4474 98.9905 21.6209 99.7709 18.5857C99.7709 18.5857 100.291 16.5045 101.072 15.2904C101.072 15.2904 106.449 15.5277 108.67 11.6979C108.775 11.5168 108.987 10.9788 108.959 10.7759C108.876 10.1665 108.325 9.0714 105.257 10.0621C105.007 10.1429 104.202 10.488 103.793 10.7652Z" fill="#7BAFD4"/>
<path fill-rule="evenodd" clip-rule="evenodd" d="M112.695 21.883C110.696 22.5232 110.928 20.7536 110.928 20.7536L114.282 12.3128C115.175 12.0898 115.874 12.4825 116.322 12.8793C116.686 13.2019 117.034 14.0676 117.075 14.3337C117.527 17.2634 115.306 19.8399 114.144 20.9637C113.746 21.3486 112.924 21.8099 112.695 21.883ZM111.507 10.174C110.755 10.1165 110.639 10.5785 110.639 10.5785C110.582 11.1567 109.888 12.8331 109.888 12.8331C109.425 13.7003 109.541 14.0472 109.541 14.0472C109.946 14.2206 110.119 13.5852 110.119 13.5852C110.929 11.9663 111.969 12.2553 111.969 12.2553L104.28 31.738C103.528 33.4724 103.991 33.6458 103.991 33.6458C104.858 33.8771 105.436 33.3566 105.436 33.3566C106.419 32.316 110.466 21.5632 110.466 21.5632C110.986 24.2223 114.166 22.0835 114.166 22.0835C117.923 19.3085 118.791 15.5505 118.791 15.5505C119.889 10.405 115.842 10.174 115.842 10.174H111.507Z" fill="#7BAFD4"/>
<path fill-rule="evenodd" clip-rule="evenodd" d="M8.23155 15.4181C7.53469 14.5298 6.61562 14.0854 5.47432 14.0854C4.47342 14.0854 3.62238 14.4229 2.92077 15.0979C2.14437 15.8423 1.75645 16.8451 1.75645 18.1057C1.75645 19.3266 2.09316 20.3988 2.76657 21.3219C3.43985 22.2452 4.37519 22.7066 5.57255 22.7066C6.65763 22.7066 7.54621 22.3194 8.23859 21.5453C8.93056 20.771 9.27674 19.7786 9.27674 18.5673C9.27674 17.3564 8.92827 16.3068 8.23155 15.4181ZM11.3112 26.4141C10.2916 26.4141 8.71065 25.5007 6.56886 23.6744C6.06375 23.7737 5.65209 23.8234 5.33408 23.8234C3.8561 23.8234 2.61224 23.3023 1.60185 22.26C0.591725 21.2177 0.086731 19.9371 0.086731 18.4182C0.086731 16.8698 0.617334 15.5745 1.67908 14.5322C2.74056 13.4898 4.05732 12.9685 5.62878 12.9685C7.14404 12.9685 8.41147 13.4749 9.4311 14.4875C10.4504 15.5003 10.9604 16.7608 10.9604 18.2694C10.9604 18.9746 10.8248 19.6718 10.5537 20.3617C10.2821 21.0515 9.91724 21.6345 9.45912 22.1111C9.18787 22.3991 8.80888 22.6818 8.32274 22.9599C10.0905 24.7167 11.6526 25.5953 13.009 25.5953H13.1774C12.6067 26.1411 11.9846 26.4141 11.3112 26.4141Z" fill="#616161"/>
<path d="M3.0359 21.1255L2.76613 21.3213L2.76657 21.3219L3.0359 21.1255ZM3.03586 21.1254L3.30563 20.9296L3.30515 20.9289L3.03586 21.1254ZM3.15146 15.3386L2.92079 15.0979L2.92077 15.0979L3.15146 15.3386ZM3.15187 15.3382L3.38254 15.5788L3.38298 15.5784L3.15187 15.3382ZM7.96929 15.6238L8.23161 15.4182L8.23155 15.4181L7.96929 15.6238ZM7.99004 21.3232L8.23848 21.5454L8.23859 21.5453L7.99004 21.3232ZM2.49729 21.5183L2.76661 21.3219L2.76657 21.3219L2.49729 21.5183ZM8.48704 21.7675L8.23868 21.5452L8.23859 21.5453L8.48704 21.7675ZM8.48715 21.7674L8.73551 21.9898L8.7357 21.9895L8.48715 21.7674ZM8.49388 15.2124L8.7562 15.0068L8.7561 15.0066L8.49388 15.2124ZM8.49382 15.2124L8.23155 15.4181L8.2316 15.4182L8.49382 15.2124ZM2.68977 14.8576L2.92049 15.0982L2.92087 15.0978L2.68977 14.8576ZM9.19411 26.0177L9.36086 25.7291L9.19411 26.0177ZM13.4078 25.8362L13.6382 26.0771V26.0771L13.4078 25.8362ZM13.4868 25.4712L13.7962 25.3471L13.4868 25.4712ZM8.86353 23.0204L8.68144 22.7412C8.59599 22.797 8.54077 22.8887 8.53156 22.9903C8.52234 23.0919 8.56016 23.1921 8.63419 23.2623L8.86353 23.0204ZM9.7006 22.3409L9.46018 22.11L9.45809 22.1122L9.7006 22.3409ZM10.8638 20.4838L10.5541 20.3606L10.5537 20.3617L10.8638 20.4838ZM10.8639 20.4836L11.1736 20.6068L11.1742 20.6055L10.8639 20.4836ZM9.66605 14.251L9.901 14.0146L9.90028 14.0138L9.66605 14.251ZM9.66597 14.2509L9.4311 14.4875L9.43174 14.4881L9.66597 14.2509ZM1.44553 14.2944L1.67905 14.5322L1.67908 14.5322L1.44553 14.2944ZM1.36247 22.492L1.1231 22.724L1.12323 22.7241L1.36247 22.492ZM1.36252 22.4921L1.60185 22.26L1.60176 22.26L1.36252 22.4921ZM6.47459 24.0316L6.68973 23.777C6.61357 23.7126 6.51259 23.6857 6.4145 23.7037L6.47459 24.0316ZM6.78515 23.4207L6.56886 23.6744H6.56886L6.78515 23.4207ZM9.52761 25.4405L9.36086 25.7291L9.52761 25.4405ZM6.50456 23.3473L6.44026 23.0202L6.50456 23.3473ZM1.84118 22.028L1.6018 22.26L1.60185 22.26L1.84118 22.028ZM1.9126 14.7701L1.68113 14.5302L1.67908 14.5322L1.9126 14.7701ZM1.91263 14.77L2.14411 15.0099L2.14618 15.0079L1.91263 14.77ZM9.19614 14.7239L9.52932 14.7136C9.52668 14.6284 9.4915 14.5474 9.43102 14.4874L9.19614 14.7239ZM12.2605 25.8515L12.4107 26.1491C12.5524 26.0776 12.624 25.9161 12.5818 25.763L12.2605 25.8515ZM8.08778 23.1963L7.85281 23.4328L7.85281 23.4328L8.08778 23.1963ZM8.15725 22.6705L8.32274 22.9599L8.32274 22.9599L8.15725 22.6705ZM9.2165 21.8826L9.45912 22.1111C9.5827 21.98 9.57964 21.7743 9.4522 21.6469L9.2165 21.8826ZM9.21649 21.8826L8.97612 21.6516C8.85037 21.7825 8.85244 21.9899 8.98078 22.1183L9.21649 21.8826ZM9.21879 21.8802L8.97846 21.6492L8.97843 21.6492L9.21879 21.8802ZM10.2434 20.2398L10.5536 20.3619L10.5537 20.3617L10.2434 20.2398ZM9.19622 14.724L9.43118 14.4875C9.324 14.381 9.15858 14.3599 9.0281 14.4361C8.89763 14.5124 8.83473 14.6668 8.87485 14.8125L9.19622 14.724ZM2.76657 21.3219C3.43982 22.2451 4.37513 22.7066 5.57255 22.7066V22.04C4.57619 22.04 3.84611 21.6708 3.30523 20.9291L2.76657 21.3219ZM2.76609 21.3212L2.76614 21.3213L3.30567 20.9297L3.30563 20.9296L2.76609 21.3212ZM1.75645 18.1057C1.75645 19.3266 2.09317 20.3988 2.76657 21.3219L3.30515 20.9289C2.72083 20.128 2.42312 19.1957 2.42312 18.1057H1.75645ZM2.92077 15.0979C2.14443 15.8423 1.75645 16.845 1.75645 18.1057H2.42312C2.42312 16.9928 2.75956 16.1761 3.38215 15.5792L2.92077 15.0979ZM2.9212 15.0975L2.92079 15.0979L3.38213 15.5792L3.38254 15.5788L2.9212 15.0975ZM5.47432 14.0854C4.47341 14.0854 3.62237 14.4229 2.92077 15.0979L3.38298 15.5784C3.9566 15.0265 4.64046 14.7521 5.47432 14.7521V14.0854ZM8.23155 15.4181C7.5347 14.5298 6.61563 14.0854 5.47432 14.0854V14.7521C6.41338 14.7521 7.13808 15.1043 7.70702 15.8296L8.23155 15.4181ZM9.27674 18.5673C9.27674 17.3564 8.92829 16.3068 8.23161 15.4182L7.70696 15.8295C8.30481 16.5921 8.61007 17.4941 8.61007 18.5673H9.27674ZM8.23859 21.5453C8.93053 20.771 9.27674 19.7787 9.27674 18.5673H8.61007C8.61007 19.6435 8.30652 20.4688 7.74149 21.1011L8.23859 21.5453ZM5.57255 22.7066C6.6576 22.7066 7.54613 22.3194 8.23848 21.5454L7.7416 21.101C7.18189 21.7267 6.47736 22.04 5.57255 22.04V22.7066ZM5.57255 22.7066C4.37516 22.7066 3.43986 22.2451 2.76661 21.3219L2.22796 21.7147C3.0337 22.8196 4.17433 23.3733 5.57255 23.3733V22.7066ZM8.23859 21.5453C7.54623 22.3194 6.65766 22.7066 5.57255 22.7066V23.3733C6.83779 23.3733 7.9104 22.9122 8.73549 21.9898L8.23859 21.5453ZM8.23878 21.5451L8.23868 21.5452L8.7354 21.9899L8.73551 21.9898L8.23878 21.5451ZM9.27674 18.5673C9.27674 19.7787 8.93053 20.771 8.23859 21.5453L8.7357 21.9895C9.55467 21.0731 9.94341 19.9136 9.94341 18.5673H9.27674ZM8.23155 15.4181C8.92827 16.3068 9.27674 17.3564 9.27674 18.5673H9.94341C9.94341 17.2188 9.55178 16.0215 8.7562 15.0068L8.23155 15.4181ZM8.2316 15.4182L8.23166 15.4182L8.7561 15.0066L8.75604 15.0066L8.2316 15.4182ZM5.47432 14.0854C6.61563 14.0854 7.5347 14.5298 8.23155 15.4181L8.75608 15.0066C7.93129 13.9552 6.81785 13.4188 5.47432 13.4188V14.0854ZM2.92087 15.0978C3.62245 14.4229 4.47346 14.0854 5.47432 14.0854V13.4188C4.30648 13.4188 3.28827 13.8193 2.45868 14.6174L2.92087 15.0978ZM1.75645 18.1057C1.75645 16.8452 2.14434 15.8425 2.92049 15.0982L2.45906 14.617C1.52897 15.509 1.08978 16.6978 1.08978 18.1057H1.75645ZM2.76657 21.3219C2.09317 20.3988 1.75645 19.3266 1.75645 18.1057H1.08978C1.08978 19.4576 1.46547 20.6696 2.228 21.7148L2.76657 21.3219ZM11.3112 26.4141C10.8014 26.4141 10.1512 26.1857 9.36086 25.7291L9.02737 26.3064C9.85033 26.7818 10.6245 27.0808 11.3112 27.0808V26.4141ZM13.1774 25.5953C12.6066 26.1411 11.9846 26.4141 11.3112 26.4141V27.0808C12.1858 27.0808 12.9665 26.7195 13.6382 26.0771L13.1774 25.5953ZM13.1774 25.5953V25.5953L13.6382 26.0771C13.835 25.8889 13.8976 25.5999 13.7962 25.3471L13.1774 25.5953ZM13.1774 25.5953V25.5953L13.7962 25.3471C13.6948 25.0943 13.4498 24.9286 13.1774 24.9286V25.5953ZM13.009 25.5953H13.1774V24.9286H13.009V25.5953ZM8.63419 23.2623C10.272 24.8152 11.7308 25.5953 13.009 25.5953V24.9286C11.9926 24.9286 10.6943 24.2968 9.09287 22.7785L8.63419 23.2623ZM9.45809 22.1122C9.25837 22.324 8.99968 22.5337 8.68144 22.7412L9.04561 23.2996C9.39564 23.0714 9.69836 22.8291 9.9431 22.5696L9.45809 22.1122ZM10.5537 20.3617C10.2824 21.051 9.9178 21.6336 9.46019 22.11L9.94101 22.5718C10.4657 22.0256 10.8746 21.3665 11.174 20.6059L10.5537 20.3617ZM10.5542 20.3604L10.5541 20.3606L11.1736 20.607L11.1736 20.6068L10.5542 20.3604ZM10.9604 18.2694C10.9604 18.9746 10.8248 19.6718 10.5537 20.3617L11.1742 20.6055C11.4742 19.842 11.6271 19.0623 11.6271 18.2694H10.9604ZM9.4311 14.4875C10.4504 15.5003 10.9604 16.7608 10.9604 18.2694H11.6271C11.6271 16.593 11.053 15.1593 9.901 14.0146L9.4311 14.4875ZM9.43174 14.4881L9.43182 14.4882L9.90028 14.0138L9.90021 14.0138L9.43174 14.4881ZM5.62878 12.9685C7.14406 12.9685 8.41148 13.475 9.4311 14.4875L9.90085 14.0144C8.74901 12.8706 7.30944 12.3018 5.62878 12.3018V12.9685ZM1.67908 14.5322C2.74054 13.4899 4.0573 12.9685 5.62878 12.9685V12.3018C3.89351 12.3018 2.40568 12.8843 1.21198 14.0565L1.67908 14.5322ZM0.086731 18.4182C0.086731 16.8698 0.617335 15.5746 1.67905 14.5322L1.21201 14.0565C0.0168396 15.2298 -0.579936 16.6991 -0.579936 18.4182H0.086731ZM1.60185 22.26C0.591735 21.2177 0.086731 19.9371 0.086731 18.4182H-0.579936C-0.579936 20.1014 -0.013629 21.551 1.1231 22.724L1.60185 22.26ZM1.60176 22.26L1.60172 22.2599L1.12323 22.7241L1.12327 22.7242L1.60176 22.26ZM5.33408 23.8234C3.85609 23.8234 2.61224 23.3023 1.60185 22.26L1.12319 22.7241C2.26167 23.8984 3.67935 24.4901 5.33408 24.4901V23.8234ZM6.4145 23.7037C5.97847 23.7836 5.61842 23.8234 5.33408 23.8234V24.4901C5.67435 24.4901 6.07809 24.4431 6.53469 24.3595L6.4145 23.7037ZM9.36086 25.7291C8.60051 25.2898 7.71013 24.6392 6.68973 23.777L6.25946 24.2862C7.29621 25.1622 8.22006 25.84 9.02737 26.3064L9.36086 25.7291ZM6.56886 23.6744C7.63975 24.5875 8.57044 25.2725 9.36086 25.7291L9.69435 25.1519C8.95246 24.7232 8.05613 24.0665 7.00143 23.1671L6.56886 23.6744ZM6.56886 23.6744H6.56886L7.00143 23.1671C6.84659 23.0351 6.63993 22.981 6.44026 23.0202L6.56886 23.6744ZM5.33408 23.8234C5.6521 23.8234 6.06377 23.7737 6.56886 23.6744L6.44026 23.0202C5.95486 23.1157 5.59073 23.1568 5.33408 23.1568V23.8234ZM1.60185 22.26C2.61224 23.3023 3.85609 23.8234 5.33408 23.8234V23.1568C4.03286 23.1568 2.96283 22.7061 2.08051 21.796L1.60185 22.26ZM0.086731 18.4182C0.086731 19.9371 0.59172 21.2176 1.6018 22.26L2.08056 21.7961C1.19704 20.8843 0.753398 19.7728 0.753398 18.4182H0.086731ZM1.67908 14.5322C0.617346 15.5745 0.086731 16.8697 0.086731 18.4182H0.753398C0.753398 17.0405 1.2178 15.9193 2.14612 15.0079L1.67908 14.5322ZM1.68117 14.5302L1.68114 14.5302L2.14407 15.0099L2.1441 15.0099L1.68117 14.5302ZM5.62878 12.9685C4.0573 12.9685 2.74054 13.4899 1.67908 14.5322L2.14618 15.0079C3.07546 14.0953 4.22117 13.6352 5.62878 13.6352V12.9685ZM9.43102 14.4874C8.41142 13.4749 7.14403 12.9685 5.62878 12.9685V13.6352C6.97857 13.6352 8.07385 14.0792 8.96127 14.9604L9.43102 14.4874ZM8.86297 14.7342L9.19443 25.4508L9.86078 25.4302L9.52932 14.7136L8.86297 14.7342ZM9.36086 25.7291C10.1512 26.1857 10.8014 26.4141 11.3112 26.4141V25.7474C10.9784 25.7474 10.4523 25.5898 9.69435 25.1519L9.36086 25.7291ZM9.41498 25.7542L11.1986 26.3945L11.4239 25.767L9.64023 25.1267L9.41498 25.7542ZM11.3112 26.4141C11.6898 26.4141 12.0571 26.3275 12.4107 26.1491L12.1103 25.5539C11.8486 25.686 11.5841 25.7474 11.3112 25.7474V26.4141ZM11.3895 26.4048L12.3387 26.1755L12.1822 25.5275L11.233 25.7567L11.3895 26.4048ZM12.3264 25.5248C11.1322 25.2836 9.79607 24.4241 8.32274 22.9599L7.85281 23.4328C9.35952 24.9301 10.8097 25.8986 12.1945 26.1783L12.3264 25.5248ZM8.32274 22.9599L7.66182 22.8726C7.63456 23.0789 7.7052 23.2861 7.85281 23.4328L8.32274 22.9599ZM8.32274 22.9599L7.99175 22.3812C7.81111 22.4845 7.68908 22.6663 7.66182 22.8726L8.32274 22.9599ZM8.32274 22.9599C8.80888 22.6818 9.18787 22.3991 9.45912 22.1111L8.97387 21.654C8.76238 21.8785 8.44281 22.1232 7.99175 22.3812L8.32274 22.9599ZM9.4522 21.6469L9.45219 21.6469L8.98078 22.1183L8.98079 22.1183L9.4522 21.6469ZM9.45685 22.1135L9.45915 22.1111L8.97843 21.6492L8.97612 21.6516L9.45685 22.1135ZM9.45912 22.1111C9.91719 21.6345 10.2821 21.0517 10.5536 20.3619L9.93326 20.1177C9.68984 20.7361 9.36941 21.2424 8.97846 21.6492L9.45912 22.1111ZM10.5537 20.3617C10.8248 19.6718 10.9604 18.9746 10.9604 18.2694H10.2937C10.2937 18.8868 10.1754 19.5015 9.93319 20.1179L10.5537 20.3617ZM10.9604 18.2694C10.9604 16.7609 10.4504 15.5004 9.43118 14.4875L8.96126 14.9604C9.84788 15.8415 10.2937 16.9287 10.2937 18.2694H10.9604ZM8.87485 14.8125L11.9391 25.94L12.5818 25.763L9.51759 14.6355L8.87485 14.8125Z" fill="#616161"/>
<path d="M19.2665 23.5703V22.4832C18.565 23.3766 17.5874 23.8234 16.3341 23.8234C15.5577 23.8234 14.8795 23.6395 14.2996 23.2724C13.6544 22.8654 13.2285 22.2948 13.0229 21.5601C12.9292 21.2027 12.8826 20.6172 12.8826 19.8032V15.2318C12.8826 14.6563 12.8638 14.2789 12.8264 14.1003C12.7422 13.6934 12.541 13.4006 12.2231 13.222H15.0293C14.7111 13.4104 14.5102 13.7035 14.426 14.1003C14.3885 14.289 14.3699 14.666 14.3699 15.2318V19.8032C14.3699 20.7065 14.5428 21.3766 14.889 21.8131C15.3471 22.389 15.9741 22.6768 16.7691 22.6768C17.7139 22.6768 18.434 22.3045 18.9298 21.5601C19.1168 21.2624 19.2105 20.8553 19.2105 20.3391V15.2318C19.2105 14.666 19.1916 14.289 19.1543 14.1003C19.07 13.7035 18.869 13.4104 18.551 13.222H21.3571C21.0391 13.4104 20.838 13.7035 20.7538 14.1003C20.7163 14.289 20.6977 14.666 20.6977 15.2318V21.5601C20.6977 22.126 20.7163 22.5034 20.7538 22.6917C20.838 23.0888 21.0391 23.3816 21.3571 23.5703H19.2665Z" fill="#616161"/>
<path d="M19.2665 23.5703V22.4832C18.565 23.3766 17.5874 23.8234 16.3341 23.8234C15.5577 23.8234 14.8795 23.6395 14.2996 23.2724C13.6544 22.8654 13.2285 22.2948 13.0229 21.5601C12.9292 21.2027 12.8826 20.6172 12.8826 19.8032V15.2318C12.8826 14.6563 12.8638 14.2789 12.8264 14.1003C12.7422 13.6934 12.541 13.4006 12.2231 13.222H15.0293C14.7111 13.4104 14.5102 13.7035 14.426 14.1003C14.3885 14.289 14.3699 14.666 14.3699 15.2318V19.8032C14.3699 20.7065 14.5428 21.3766 14.889 21.8131C15.3471 22.389 15.9741 22.6768 16.7691 22.6768C17.7139 22.6768 18.434 22.3045 18.9298 21.5601C19.1168 21.2624 19.2105 20.8553 19.2105 20.3391V15.2318C19.2105 14.666 19.1916 14.289 19.1543 14.1003C19.07 13.7035 18.869 13.4104 18.551 13.222H21.3571C21.0391 13.4104 20.838 13.7035 20.7538 14.1003C20.7163 14.289 20.6977 14.666 20.6977 15.2318V21.5601C20.6977 22.126 20.7163 22.5034 20.7538 22.6917C20.838 23.0888 21.0391 23.3816 21.3571 23.5703H19.2665Z" stroke="#616161" stroke-width="0.666667" stroke-linecap="round" stroke-linejoin="round"/>
<path fill-rule="evenodd" clip-rule="evenodd" d="M27.4042 14.547L25.8888 18.6567H28.9055L27.4042 14.547ZM29.8736 23.5702C30.229 23.3419 30.4068 23.1335 30.4068 22.9448C30.4068 22.8256 30.3227 22.5329 30.1543 22.0663L29.2844 19.6689H25.5382L24.6964 22.0663C24.584 22.384 24.5281 22.6522 24.5281 22.8703C24.5281 23.1383 24.7055 23.3717 25.0612 23.5702H22.3392C22.6759 23.3419 22.9235 23.1036 23.0829 22.8554C23.2418 22.6075 23.4522 22.1407 23.7141 21.4558L26.3238 14.547C26.4361 14.249 26.4922 14.0111 26.4922 13.8321C26.4922 13.5841 26.3425 13.3808 26.0432 13.2219H28.4005L31.5152 21.4558C31.7489 22.0812 31.9642 22.5378 32.1607 22.8256C32.3572 23.1137 32.6188 23.3616 32.9464 23.5702H29.8736Z" fill="#616161"/>
<path d="M25.6154 18.8473L25.3419 19.0379L25.3419 19.0379L25.6154 18.8473ZM29.1787 18.8477L28.9055 18.6567L28.9055 18.6567L29.1787 18.8477ZM29.2186 18.5423L28.9055 18.6567L29.2186 18.5423ZM27.7173 14.4326L28.0304 14.3182V14.3182L27.7173 14.4326ZM27.4047 14.2136L27.4042 14.547L27.4047 14.2136ZM27.0915 14.4316L27.4042 14.547V14.547L27.0915 14.4316ZM25.5761 18.5414L25.2633 18.426L25.5761 18.5414ZM27.4028 15.5144L27.7159 15.4C27.6679 15.2687 27.5431 15.1813 27.4033 15.1811C27.2635 15.1809 27.1384 15.2679 27.09 15.3991L27.4028 15.5144ZM26.367 18.3233L26.0543 18.208C26.0165 18.3103 26.0312 18.4245 26.0936 18.514C26.1559 18.6034 26.258 18.6567 26.367 18.6567V18.3233ZM28.4289 18.3233V18.6567C28.5377 18.6567 28.6397 18.6036 28.702 18.5144C28.7644 18.4252 28.7793 18.3112 28.742 18.209L28.4289 18.3233ZM25.3838 23.6541L25.0612 23.5702L25.3838 23.6541ZM25.2237 23.2791L25.0612 23.5702H25.0612L25.2237 23.2791ZM25.0106 22.1774L25.3249 22.2885L25.3249 22.2885L25.0106 22.1774ZM25.0109 22.1767L25.3251 22.2878L25.3254 22.2871L25.0109 22.1767ZM25.7744 20.0022V19.6689C25.6329 19.6689 25.5068 19.7582 25.4599 19.8917L25.7744 20.0022ZM29.0507 20.0022L29.3641 19.8885C29.3162 19.7566 29.191 19.6689 29.0507 19.6689V20.0022ZM29.8407 22.1795L30.1541 22.0659L30.1541 22.0658L29.8407 22.1795ZM29.8408 22.1798L30.1544 22.0666L30.1542 22.0662L29.8408 22.1798ZM30.0233 22.7279L30.3437 22.6358V22.6358L30.0233 22.7279ZM30.0644 22.8896L29.7378 22.9563L29.7379 22.9563L30.0644 22.8896ZM30.0732 22.943L30.395 23.0299C30.4055 22.991 30.4089 22.9505 30.405 22.9104L30.0732 22.943ZM30.0199 23.0263L30.2735 23.2426L30.2735 23.2426L30.0199 23.0263ZM29.6935 23.2897L29.8736 23.5702H29.8736L29.6935 23.2897ZM29.5538 23.664L29.234 23.7579L29.234 23.7579L29.5538 23.664ZM32.9464 23.9035V24.2368C33.1305 24.2368 33.2797 24.0876 33.2797 23.9035H32.9464ZM32.9464 23.5702L32.6652 23.3912C32.6312 23.4447 32.6131 23.5068 32.6131 23.5702H32.9464ZM33.1254 23.289L33.4066 23.468C33.4541 23.3934 33.47 23.303 33.4508 23.2167C33.4316 23.1304 33.379 23.0552 33.3044 23.0078L33.1254 23.289ZM32.4361 22.6378L32.1603 22.8251L32.1607 22.8256L32.4361 22.6378ZM32.436 22.6377L32.7117 22.4504L32.7113 22.4497L32.436 22.6377ZM31.8274 21.3391L32.1397 21.2224L32.1394 21.2216L31.8274 21.3391ZM31.827 21.3378L32.1389 21.2203L32.1387 21.2199L31.827 21.3378ZM28.7123 13.104L29.0241 12.9861L29.0241 12.9861L28.7123 13.104ZM25.7197 13.1414L26.0432 13.2219L26.0432 13.2219L25.7197 13.1414ZM25.8869 13.5164L25.7306 13.8108L25.7306 13.8108L25.8869 13.5164ZM26.012 14.4292L26.318 14.5614C26.3201 14.5565 26.322 14.5517 26.3239 14.5467L26.012 14.4292ZM23.4028 21.3367L23.7141 21.4557L23.7146 21.4545L23.4028 21.3367ZM26.0119 14.4294L26.3237 14.5472C26.3877 14.3778 26.3048 14.1883 26.1369 14.1204C25.9691 14.0525 25.7777 14.131 25.7059 14.2972L26.0119 14.4294ZM23.4025 21.3373L23.7139 21.4564L23.7139 21.4564L23.4025 21.3373ZM22.8022 22.6755L23.0827 22.8556L23.0829 22.8554L22.8022 22.6755ZM22.1522 23.2943L21.9651 23.0184L22.1522 23.2943ZM30.6729 23.2368L30.3707 23.096C30.3226 23.1992 30.3305 23.3199 30.3917 23.4159C30.4529 23.512 30.5589 23.5702 30.6729 23.5702V23.2368ZM32.0551 23.2368V23.5702C32.1848 23.5702 32.3027 23.4949 32.3574 23.3773C32.412 23.2597 32.3935 23.1211 32.3099 23.0219L32.0551 23.2368ZM30.6641 22.5437L30.3437 22.6358L30.3437 22.6358L30.6641 22.5437ZM30.4678 21.9531L30.1542 22.0662L30.1543 22.0663L30.4678 21.9531ZM30.4676 21.9526L30.7811 21.8395L30.7809 21.8389L30.4676 21.9526ZM29.5977 19.5552L29.2844 19.6689V19.6689L29.5977 19.5552ZM25.2237 19.5584L25.5382 19.6689H25.5382L25.2237 19.5584ZM24.3821 21.9552L24.6963 22.0665L24.6966 22.0656L24.3821 21.9552ZM24.382 21.9555L24.0678 21.8441L24.0677 21.8444L24.382 21.9555ZM24.2704 23.2368V23.5702C24.3828 23.5702 24.4876 23.5135 24.5492 23.4195C24.6108 23.3255 24.6209 23.2068 24.576 23.1037L24.2704 23.2368ZM23.2163 23.2368L22.9587 23.0253C22.8769 23.1249 22.8599 23.2628 22.915 23.3793C22.9701 23.4958 23.0874 23.5702 23.2163 23.5702V23.2368ZM23.3634 23.0355L23.6439 23.2156L23.6439 23.2155L23.3634 23.0355ZM23.3635 23.0353L23.644 23.2153L23.6441 23.2152L23.3635 23.0353ZM24.0255 21.5748L23.7141 21.4557L23.7141 21.4558L24.0255 21.5748ZM24.026 21.5735L24.3373 21.6926C24.3692 21.6092 24.3663 21.5164 24.3292 21.4351C24.292 21.3538 24.2238 21.2908 24.1399 21.2603L24.026 21.5735ZM24.0259 21.5735L23.7141 21.4558C23.6826 21.5391 23.6858 21.6316 23.723 21.7126C23.7602 21.7936 23.8283 21.8563 23.912 21.8868L24.0259 21.5735ZM26.6356 14.6648L26.3238 14.547L26.3238 14.547L26.6356 14.6648ZM26.6357 14.6645L26.9475 14.7823L26.9476 14.7821L26.6357 14.6645ZM26.783 13.5553V13.2219C26.6764 13.2219 26.5762 13.2729 26.5135 13.3591C26.4507 13.4452 26.433 13.5562 26.4657 13.6577L26.783 13.5553ZM28.1703 13.5553L28.482 13.4373C28.433 13.3077 28.3088 13.2219 28.1703 13.2219V13.5553ZM31.203 21.5724L31.5151 21.4556L31.5147 21.4545L31.203 21.5724ZM31.2031 21.5729L31.5154 21.4562L31.5153 21.4559L31.2031 21.5729ZM31.8854 23.0135L32.1608 22.8257L32.1607 22.8256L31.8854 23.0135ZM25.8888 18.6567L25.8888 18.6567L25.3419 19.0379C25.4666 19.2168 25.6708 19.3233 25.8888 19.3233V18.6567ZM28.9055 18.6567H25.8888V19.3233H28.9055V18.6567ZM28.9055 18.6567L28.9055 18.6567V19.3233C29.1232 19.3233 29.3271 19.2171 29.4518 19.0387L28.9055 18.6567ZM28.9055 18.6567V18.6567L29.4518 19.0387C29.5766 18.8604 29.6064 18.6324 29.5317 18.4279L28.9055 18.6567ZM27.4042 14.547L28.9055 18.6567L29.5317 18.4279L28.0304 14.3182L27.4042 14.547ZM27.4042 14.547L27.4042 14.547L28.0304 14.3182C27.9345 14.0556 27.6848 13.8807 27.4052 13.8803L27.4042 14.547ZM27.4042 14.547L27.4042 14.547L27.4052 13.8803C27.1256 13.8799 26.8755 14.054 26.7787 14.3163L27.4042 14.547ZM25.8888 18.6567L27.4042 14.547L26.7787 14.3163L25.2633 18.426L25.8888 18.6567ZM25.8888 18.6567L25.2633 18.426C25.1879 18.6306 25.2173 18.8591 25.3419 19.0379L25.8888 18.6567ZM27.09 15.3991L26.0543 18.208L26.6798 18.4387L27.7155 15.6297L27.09 15.3991ZM28.742 18.209L27.7159 15.4L27.0897 15.6288L28.1158 18.4377L28.742 18.209ZM26.367 18.6567H28.4289V17.99H26.367V18.6567ZM22.3392 23.5702H22.3392L21.7019 23.7659C21.7879 24.0458 22.0464 24.2368 22.3392 24.2368V23.5702ZM25.0612 23.5702H22.3392V24.2368H25.0612V23.5702ZM25.0612 23.5702V24.2368C25.3648 24.2368 25.63 24.0318 25.7064 23.738L25.0612 23.5702ZM25.0612 23.5702L25.7064 23.738C25.7828 23.4443 25.6512 23.136 25.3861 22.988L25.0612 23.5702ZM24.5281 22.8703C24.5281 23.1354 24.7018 23.3696 25.0612 23.5702L25.3861 22.988C25.2559 22.9154 25.2077 22.8637 25.193 22.8443C25.1839 22.8321 25.1947 22.8431 25.1947 22.8703H24.5281ZM24.6964 22.0663C24.584 22.384 24.5281 22.6522 24.5281 22.8703H25.1947C25.1947 22.7571 25.2257 22.569 25.3249 22.2885L24.6964 22.0663ZM24.6966 22.0656L24.6963 22.0663L25.3249 22.2885L25.3251 22.2878L24.6966 22.0656ZM25.4599 19.8917L24.6964 22.0663L25.3254 22.2871L26.0889 20.1126L25.4599 19.8917ZM29.0507 19.6689H25.7744V20.3355H29.0507V19.6689ZM30.1541 22.0658L29.3641 19.8885L28.7374 20.1159L29.5274 22.2931L30.1541 22.0658ZM30.1542 22.0662L30.1541 22.0659L29.5273 22.293L29.5274 22.2933L30.1542 22.0662ZM30.3437 22.6358C30.3016 22.4895 30.2385 22.2998 30.1544 22.0666L29.5273 22.2929C29.6091 22.5196 29.6667 22.6939 29.703 22.82L30.3437 22.6358ZM30.391 22.8229C30.3805 22.7714 30.3647 22.709 30.3437 22.6358L29.703 22.82C29.7211 22.8832 29.732 22.9276 29.7378 22.9563L30.391 22.8229ZM30.405 22.9104C30.4032 22.8925 30.3995 22.8645 30.391 22.8229L29.7379 22.9563C29.74 22.9668 29.7411 22.9732 29.7415 22.9761C29.7419 22.9787 29.7418 22.9784 29.7415 22.9756L30.405 22.9104ZM30.2735 23.2426C30.337 23.1682 30.3766 23.0981 30.395 23.0299L29.7514 22.856C29.766 22.8021 29.7866 22.7862 29.7662 22.8101L30.2735 23.2426ZM29.8736 23.5702C30.0513 23.456 30.1846 23.3469 30.2735 23.2426L29.7662 22.8101C29.7362 22.8452 29.6625 22.9135 29.5133 23.0093L29.8736 23.5702ZM29.8736 23.5702V23.5702L29.5133 23.0093C29.2644 23.1692 29.1506 23.474 29.234 23.7579L29.8736 23.5702ZM29.8736 23.5702H29.8736L29.234 23.7579C29.3173 24.0418 29.5778 24.2368 29.8736 24.2368V23.5702ZM32.9464 23.5702H29.8736V24.2368H32.9464V23.5702ZM32.6131 23.5702V23.9035H33.2797V23.5702H32.6131ZM32.8442 23.11L32.6652 23.3912L33.2276 23.7492L33.4066 23.468L32.8442 23.11ZM32.1607 22.8256C32.3571 23.1137 32.6188 23.3616 32.9464 23.5702L33.3044 23.0078C33.0444 22.8423 32.8515 22.6553 32.7115 22.45L32.1607 22.8256ZM32.1602 22.825L32.1603 22.8251L32.7118 22.4505L32.7117 22.4504L32.1602 22.825ZM31.5152 21.4558C31.7489 22.0811 31.9642 22.5378 32.1607 22.8256L32.7113 22.4497C32.5613 22.23 32.3684 21.8343 32.1397 21.2224L31.5152 21.4558ZM31.515 21.4553L31.5155 21.4565L32.1394 21.2216L32.1389 21.2203L31.515 21.4553ZM28.4005 13.2219L31.5152 21.4558L32.1387 21.2199L29.0241 12.9861L28.4005 13.2219ZM28.4005 13.2219L28.4005 13.2219L29.0241 12.9861C28.926 12.7268 28.6777 12.5553 28.4005 12.5553V13.2219ZM26.0432 13.2219H28.4005V12.5553H26.0432V13.2219ZM26.0432 13.2219V13.2219V12.5553C25.737 12.5553 25.4702 12.7638 25.3963 13.0609L26.0432 13.2219ZM26.0432 13.2219L26.0432 13.2219L25.3963 13.0609C25.3223 13.358 25.4602 13.6672 25.7306 13.8108L26.0432 13.2219ZM26.4922 13.8321C26.4922 13.7328 26.4671 13.6142 26.3817 13.496C26.303 13.3871 26.1877 13.2986 26.0432 13.2219L25.7306 13.8108C25.8224 13.8595 25.843 13.8888 25.8413 13.8864C25.8395 13.8838 25.8343 13.8755 25.8302 13.862C25.8262 13.8487 25.8255 13.8376 25.8255 13.8321H26.4922ZM26.3239 14.5467C26.4361 14.249 26.4922 14.0111 26.4922 13.8321H25.8255C25.8255 13.8909 25.8026 14.0395 25.7001 14.3116L26.3239 14.5467ZM25.706 14.297L21.7146 23.5358L22.3266 23.8002L26.318 14.5614L25.706 14.297ZM23.7146 21.4545L26.3237 14.5472L25.7001 14.3116L23.0909 21.2189L23.7146 21.4545ZM23.7139 21.4564C23.7139 21.4563 23.7139 21.4563 23.714 21.4561C23.714 21.456 23.7141 21.4559 23.7141 21.4557L23.0914 21.2176C23.0914 21.2177 23.0914 21.2178 23.0913 21.2179C23.0913 21.218 23.0912 21.2181 23.0912 21.2183L23.7139 21.4564ZM23.0829 22.8554C23.2418 22.6075 23.4521 22.1409 23.7139 21.4564L23.0912 21.2183C22.8286 21.905 22.6392 22.3121 22.5216 22.4956L23.0829 22.8554ZM22.3392 23.5702C22.6758 23.3419 22.9233 23.1038 23.0827 22.8556L22.5218 22.4954C22.4256 22.6451 22.2532 22.823 21.9651 23.0184L22.3392 23.5702ZM22.3392 23.5702H22.3392L21.9651 23.0184C21.7227 23.1827 21.616 23.4859 21.7019 23.7659L22.3392 23.5702ZM22.3266 23.8002L26.3179 14.5616L25.7059 14.2972L21.7146 23.5358L22.3266 23.8002ZM30.6729 23.5702H32.0551V22.9035H30.6729V23.5702ZM30.4068 22.9448C30.4068 22.9945 30.3949 23.0442 30.3707 23.096L30.975 23.3777C31.0336 23.2519 31.0735 23.1063 31.0735 22.9448H30.4068ZM30.3437 22.6358C30.3856 22.7815 30.4068 22.8849 30.4068 22.9448H31.0735C31.0735 22.7801 31.0254 22.5941 30.9844 22.4517L30.3437 22.6358ZM30.1543 22.0663C30.2385 22.2996 30.3016 22.4894 30.3437 22.6358L30.9844 22.4517C30.9365 22.2851 30.8679 22.0797 30.7813 21.8399L30.1543 22.0663ZM30.154 22.0657L30.1542 22.0662L30.7813 21.84L30.7811 21.8395L30.154 22.0657ZM29.2844 19.6689L30.1543 22.0663L30.7809 21.8389L29.9111 19.4415L29.2844 19.6689ZM29.2844 19.6689V19.6689L29.9111 19.4415C29.8154 19.1778 29.5649 19.0022 29.2844 19.0022V19.6689ZM25.5382 19.6689H29.2844V19.0022H25.5382V19.6689ZM25.5382 19.6689H25.5382V19.0022C25.2551 19.0022 25.0029 19.1809 24.9092 19.448L25.5382 19.6689ZM24.6966 22.0656L25.5382 19.6689L24.9092 19.448L24.0676 21.8447L24.6966 22.0656ZM24.6962 22.0668L24.6963 22.0665L24.0679 21.8438L24.0678 21.8441L24.6962 22.0668ZM24.5281 22.8703C24.5281 22.6522 24.584 22.3842 24.6962 22.0666L24.0677 21.8444C23.9422 22.1993 23.8614 22.5474 23.8614 22.8703H24.5281ZM24.576 23.1037C24.5453 23.0332 24.5281 22.9565 24.5281 22.8703H23.8614C23.8614 23.0498 23.8982 23.217 23.9648 23.3699L24.576 23.1037ZM23.2163 23.5702H24.2704V22.9035H23.2163V23.5702ZM23.0829 22.8554C23.0462 22.9125 23.0049 22.9691 22.9587 23.0253L23.474 23.4484C23.5355 23.3734 23.5924 23.2958 23.6439 23.2156L23.0829 22.8554ZM23.0829 22.8553L23.0828 22.8555L23.6439 23.2155L23.644 23.2153L23.0829 22.8553ZM23.7141 21.4558C23.4522 22.1406 23.2418 22.6074 23.0829 22.8554L23.6441 23.2152C23.8443 22.9029 24.0756 22.3769 24.3368 21.6939L23.7141 21.4558ZM23.7146 21.4545L23.7141 21.4557L24.3368 21.6939L24.3373 21.6926L23.7146 21.4545ZM23.912 21.8868L23.912 21.8868L24.1399 21.2603L24.1399 21.2603L23.912 21.8868ZM26.3238 14.547L23.7141 21.4558L24.3378 21.6913L26.9475 14.7825L26.3238 14.547ZM26.3239 14.5467L26.3238 14.547L26.9475 14.7826L26.9475 14.7823L26.3239 14.5467ZM26.4922 13.8321C26.4922 14.0111 26.4361 14.2491 26.3238 14.547L26.9476 14.7821C27.0697 14.4582 27.1589 14.131 27.1589 13.8321H26.4922ZM26.4657 13.6577C26.4825 13.7096 26.4922 13.7672 26.4922 13.8321H27.1589C27.1589 13.699 27.1387 13.5722 27.1002 13.4529L26.4657 13.6577ZM28.1703 13.2219H26.783V13.8886H28.1703V13.2219ZM31.5147 21.4545L28.482 13.4373L27.8585 13.6732L30.8912 21.6904L31.5147 21.4545ZM31.5153 21.4559C31.5152 21.4558 31.5152 21.4557 31.5151 21.4556L30.8908 21.6893C30.8908 21.6895 30.8909 21.6897 30.891 21.6899L31.5153 21.4559ZM32.1607 22.8256C31.9643 22.5379 31.749 22.0814 31.5154 21.4562L30.8909 21.6896C31.1296 22.3284 31.3673 22.8458 31.6101 23.2015L32.1607 22.8256ZM32.3099 23.0219C32.2567 22.9588 32.207 22.8935 32.1608 22.8257L31.61 23.2014C31.6691 23.2881 31.7326 23.3715 31.8003 23.4517L32.3099 23.0219Z" fill="#616161"/>
<path d="M39.7513 23.5702H33.7041C34.022 23.3914 34.2233 23.0988 34.3075 22.6916C34.3447 22.5129 34.3636 22.136 34.3636 21.5601V15.2317C34.3636 14.6563 34.3447 14.2789 34.3075 14.1002C34.2233 13.6933 34.022 13.4006 33.7041 13.2219H36.5101C36.1921 13.4006 35.9912 13.6933 35.9069 14.1002C35.8695 14.2789 35.8507 14.6563 35.8507 15.2317V22.2898C36.5431 22.3989 37.207 22.4534 37.8432 22.4534C38.3763 22.4534 38.8369 22.384 39.2251 22.245C39.6132 22.1062 40.0506 21.8529 40.537 21.4856L39.7513 23.5702Z" fill="#616161"/>
<path d="M39.7513 23.5702H33.7041C34.022 23.3914 34.2233 23.0988 34.3075 22.6916C34.3447 22.5129 34.3636 22.136 34.3636 21.5601V15.2317C34.3636 14.6563 34.3447 14.2789 34.3075 14.1002C34.2233 13.6933 34.022 13.4006 33.7041 13.2219H36.5101C36.1921 13.4006 35.9912 13.6933 35.9069 14.1002C35.8695 14.2789 35.8507 14.6563 35.8507 15.2317V22.2898C36.5431 22.3989 37.207 22.4534 37.8432 22.4534C38.3763 22.4534 38.8369 22.384 39.2251 22.245C39.6132 22.1062 40.0506 21.8529 40.537 21.4856V21.4856L39.7513 23.5702Z" stroke="#616161" stroke-width="0.666667" stroke-linecap="round" stroke-linejoin="round"/>
<path d="M41.4489 23.5702C41.7666 23.3914 41.9678 23.0988 42.0521 22.6916C42.0892 22.5129 42.1083 22.136 42.1083 21.5601V15.2317C42.1083 14.6563 42.0892 14.2789 42.0521 14.1002C41.9678 13.6933 41.7666 13.4006 41.4489 13.2219H44.2548C43.937 13.4006 43.7358 13.6933 43.6515 14.1002C43.6141 14.2789 43.5954 14.6563 43.5954 15.2317V21.5601C43.5954 22.136 43.6141 22.5129 43.6515 22.6916C43.7358 23.0988 43.937 23.3914 44.2548 23.5702H41.4489Z" fill="#616161"/>
<path d="M41.4489 23.5702C41.7666 23.3914 41.9678 23.0988 42.0521 22.6916C42.0892 22.5129 42.1083 22.136 42.1083 21.5601V15.2317C42.1083 14.6563 42.0892 14.2789 42.0521 14.1002C41.9678 13.6933 41.7666 13.4006 41.4489 13.2219H44.2548C43.937 13.4006 43.7358 13.6933 43.6515 14.1002C43.6141 14.2789 43.5954 14.6563 43.5954 15.2317V21.5601C43.5954 22.136 43.6141 22.5129 43.6515 22.6916C43.7358 23.0988 43.937 23.3914 44.2548 23.5702H41.4489Z" stroke="#616161" stroke-width="0.666667" stroke-linecap="round" stroke-linejoin="round"/>
<path d="M52.154 14.9934C52.0229 14.7256 51.8266 14.5518 51.5647 14.4724C51.4055 14.4228 51.1391 14.3982 50.7651 14.3982C50.6902 14.3982 50.566 14.4055 50.3933 14.4204C50.2199 14.4353 49.9979 14.4426 49.7266 14.4426H49.4883V21.7238C49.4883 22.24 49.5397 22.6198 49.6427 22.8629C49.7453 23.1062 49.9559 23.3419 50.274 23.5702H47.3415C47.6593 23.3914 47.8608 23.0988 47.9447 22.6916C47.9822 22.5033 48.0009 22.1259 48.0009 21.5601V14.4426C47.711 14.4131 47.3134 14.3982 46.8084 14.3982C46.3592 14.3982 46.0227 14.428 45.7983 14.4873C45.508 14.5668 45.2041 14.7357 44.886 14.9934L45.4334 13.1175C45.6297 13.1873 45.8823 13.2219 46.191 13.2219H51.7614C51.8828 13.2219 52.0746 13.2119 52.3365 13.1921C52.3833 13.1821 52.4815 13.1574 52.631 13.1175L52.154 14.9934Z" fill="#616161"/>
<path d="M52.154 14.9934C52.0229 14.7256 51.8266 14.5518 51.5647 14.4724C51.4055 14.4228 51.1391 14.3982 50.7651 14.3982C50.6902 14.3982 50.566 14.4055 50.3933 14.4204C50.2199 14.4353 49.9979 14.4426 49.7266 14.4426H49.4883V21.7238C49.4883 22.24 49.5397 22.6198 49.6427 22.8629C49.7453 23.1062 49.9559 23.3419 50.274 23.5702H47.3415C47.6593 23.3914 47.8608 23.0988 47.9447 22.6916C47.9822 22.5033 48.0009 22.1259 48.0009 21.5601V14.4426C47.711 14.4131 47.3134 14.3982 46.8084 14.3982C46.3592 14.3982 46.0227 14.428 45.7983 14.4873C45.508 14.5668 45.2041 14.7357 44.886 14.9934L45.4334 13.1175C45.6297 13.1873 45.8823 13.2219 46.191 13.2219H51.7614C51.8828 13.2219 52.0746 13.2119 52.3365 13.1921C52.3833 13.1821 52.4815 13.1574 52.631 13.1175V13.1175L52.154 14.9934Z" stroke="#616161" stroke-width="0.666667" stroke-linecap="round" stroke-linejoin="round"/>
<path d="M58.4397 19.0438V21.7238C58.4397 22.2003 58.4768 22.5427 58.552 22.7512C58.6454 22.9993 58.8559 23.2724 59.1833 23.5702H56.321C56.6297 23.3419 56.8215 23.0441 56.8964 22.6767C56.9336 22.508 56.9523 22.136 56.9523 21.5601V19.0438L54.399 14.6809C54.1465 14.2542 53.9404 13.9542 53.7816 13.7801C53.6223 13.6066 53.3885 13.4204 53.0798 13.2219L54.7635 13.1623C54.988 13.1623 55.1427 13.197 55.2266 13.2663C55.3109 13.3361 55.4559 13.5494 55.6616 13.9067L57.8923 17.7781L59.7585 14.7704C59.9454 14.4724 60.0391 14.2192 60.0391 14.0111C60.0391 13.6933 59.8615 13.4304 59.5059 13.2219H62.0738L58.4397 19.0438Z" fill="#616161"/>
<path d="M58.4397 19.0438V21.7238C58.4397 22.2003 58.4768 22.5427 58.552 22.7512C58.6454 22.9993 58.8559 23.2724 59.1833 23.5702H56.321C56.6297 23.3419 56.8215 23.0441 56.8964 22.6767C56.9336 22.508 56.9523 22.136 56.9523 21.5601V19.0438L54.399 14.6809C54.1465 14.2542 53.9404 13.9542 53.7816 13.7801C53.6223 13.6066 53.3885 13.4204 53.0798 13.2219L54.7635 13.1623C54.988 13.1623 55.1427 13.197 55.2266 13.2663C55.3109 13.3361 55.4559 13.5494 55.6616 13.9067L57.8923 17.7781L59.7585 14.7704C59.9454 14.4724 60.0391 14.2192 60.0391 14.0111C60.0391 13.6933 59.8615 13.4304 59.5059 13.2219H62.0738L58.4397 19.0438Z" stroke="#616161" stroke-width="0.666667" stroke-linecap="round" stroke-linejoin="round"/>
<path d="M134.721 22.6768C133.964 23.4512 132.93 23.8381 131.62 23.8381C130.731 23.8381 129.861 23.6743 129.01 23.3468L128.561 21.3964C129.562 22.2302 130.647 22.647 131.817 22.647C132.443 22.647 132.969 22.4932 133.395 22.1855C133.82 21.8779 134.033 21.4955 134.033 21.0389C134.033 20.6024 133.87 20.2302 133.542 19.9222C133.262 19.6641 132.628 19.2968 131.641 18.8205C130.654 18.3439 129.974 17.927 129.6 17.5697C129.085 17.0733 128.828 16.4677 128.828 15.7531C128.828 14.9096 129.162 14.2342 129.831 13.7281C130.5 13.222 131.396 12.9685 132.518 12.9685C133.257 12.9685 134.01 13.0829 134.777 13.3112V15.0979C134.112 14.4132 133.332 14.0705 132.434 14.0705C131.854 14.0705 131.384 14.2071 131.024 14.4801C130.664 14.7531 130.484 15.108 130.484 15.5447C130.484 15.9318 130.626 16.2571 130.912 16.5197C131.197 16.783 131.784 17.133 132.672 17.5697C133.729 18.0858 134.449 18.5076 134.833 18.8354C135.366 19.2819 135.633 19.8528 135.633 20.5476C135.633 21.3418 135.329 22.0515 134.721 22.6768Z" fill="#616161"/>
<path d="M134.721 22.6768C133.964 23.4512 132.93 23.8381 131.62 23.8381C130.731 23.8381 129.861 23.6743 129.01 23.3468L128.561 21.3964C129.562 22.2302 130.647 22.647 131.817 22.647C132.443 22.647 132.969 22.4932 133.395 22.1855C133.82 21.8779 134.033 21.4955 134.033 21.0389C134.033 20.6024 133.87 20.2302 133.542 19.9222C133.262 19.6641 132.628 19.2968 131.641 18.8205C130.654 18.3439 129.974 17.927 129.6 17.5697C129.085 17.0733 128.828 16.4677 128.828 15.7531C128.828 14.9096 129.162 14.2342 129.831 13.7281C130.5 13.222 131.396 12.9685 132.518 12.9685C133.257 12.9685 134.01 13.0829 134.777 13.3112V15.0979C134.112 14.4132 133.332 14.0705 132.434 14.0705C131.854 14.0705 131.384 14.2071 131.024 14.4801C130.664 14.7531 130.484 15.108 130.484 15.5447C130.484 15.9318 130.626 16.2571 130.912 16.5197C131.197 16.783 131.784 17.133 132.672 17.5697C133.729 18.0858 134.449 18.5076 134.833 18.8354C135.366 19.2819 135.633 19.8528 135.633 20.5476V20.5476C135.633 21.3418 135.329 22.0515 134.721 22.6768Z" stroke="#616161" stroke-width="0.666667" stroke-linecap="round" stroke-linejoin="round"/>
<path d="M143.714 23.5702C144.032 23.3816 144.233 23.0888 144.318 22.6916C144.355 22.5033 144.374 22.1259 144.374 21.5601V18.5821H139.042V21.5601C139.042 22.136 139.061 22.5129 139.098 22.6916C139.183 23.0988 139.384 23.3914 139.702 23.5702H136.896C137.213 23.3914 137.415 23.0988 137.499 22.6916C137.536 22.5129 137.555 22.136 137.555 21.5601V15.2317C137.555 14.6563 137.536 14.2789 137.499 14.1002C137.415 13.6933 137.213 13.4006 136.896 13.2219H139.702C139.384 13.4006 139.183 13.6933 139.098 14.1002C139.061 14.2789 139.042 14.6563 139.042 15.2317V17.3761H144.374V15.2317C144.374 14.666 144.355 14.2889 144.318 14.1002C144.233 13.7034 144.032 13.4103 143.714 13.2219H146.521C146.203 13.4103 146.002 13.7034 145.917 14.1002C145.88 14.2889 145.861 14.666 145.861 15.2317V21.5601C145.861 22.1259 145.88 22.5033 145.917 22.6916C146.002 23.0888 146.203 23.3816 146.521 23.5702H143.714Z" fill="#616161"/>
<path d="M143.714 23.5702C144.032 23.3816 144.233 23.0888 144.318 22.6916C144.355 22.5033 144.374 22.1259 144.374 21.5601V18.5821H139.042V21.5601C139.042 22.136 139.061 22.5129 139.098 22.6916C139.183 23.0988 139.384 23.3914 139.702 23.5702H136.896C137.213 23.3914 137.415 23.0988 137.499 22.6916C137.536 22.5129 137.555 22.136 137.555 21.5601V15.2317C137.555 14.6563 137.536 14.2789 137.499 14.1002C137.415 13.6933 137.213 13.4006 136.896 13.2219H139.702C139.384 13.4006 139.183 13.6933 139.098 14.1002C139.061 14.2789 139.042 14.6563 139.042 15.2317V17.3761H144.374V15.2317C144.374 14.666 144.355 14.2889 144.318 14.1002C144.233 13.7034 144.032 13.4103 143.714 13.2219H146.521C146.203 13.4103 146.002 13.7034 145.917 14.1002C145.88 14.2889 145.861 14.666 145.861 15.2317V21.5601C145.861 22.1259 145.88 22.5033 145.917 22.6916C146.002 23.0888 146.203 23.3816 146.521 23.5702H143.714Z" stroke="#616161" stroke-width="0.666667" stroke-linecap="round" stroke-linejoin="round"/>
<path fill-rule="evenodd" clip-rule="evenodd" d="M156.005 15.468C155.294 14.5564 154.364 14.1003 153.213 14.1003C152.128 14.1003 151.237 14.4794 150.541 15.2377C149.843 15.9956 149.495 16.9841 149.495 18.2027C149.495 19.491 149.892 20.6008 150.688 21.5324C151.352 22.3153 152.217 22.7066 153.283 22.7066C154.387 22.7066 155.285 22.3253 155.977 21.5622C156.669 20.7991 157.016 19.808 157.016 18.5895C157.016 17.3702 156.679 16.3303 156.005 15.468ZM157.107 22.2302C156.045 23.2925 154.752 23.8233 153.227 23.8233C151.721 23.8233 150.444 23.3022 149.397 22.26C148.349 21.2176 147.825 19.9471 147.825 18.4479C147.825 16.8898 148.361 15.5845 149.432 14.5321C150.503 13.4801 151.833 12.9539 153.423 12.9539C154.939 12.9539 156.197 13.47 157.198 14.5023C157.666 14.9789 158.033 15.5595 158.299 16.2443C158.566 16.9293 158.699 17.6241 158.699 18.329C158.699 19.8677 158.168 21.168 157.107 22.2302Z" fill="#616161"/>
<path d="M150.942 21.3168L151.196 21.1012L151.196 21.1007L150.942 21.3168ZM150.941 21.3159L151.195 21.0999L151.195 21.0995L150.941 21.3159ZM150.786 15.4633L150.541 15.2376L150.541 15.2377L150.786 15.4633ZM150.786 15.4631L151.031 15.6888L151.032 15.6885L150.786 15.4631ZM155.742 15.6729L156.005 15.468L156.005 15.468L155.742 15.6729ZM155.743 15.6732L155.48 15.8781L155.48 15.8784L155.743 15.6732ZM155.73 21.3382L155.977 21.5622L155.73 21.3382ZM150.434 21.7484L150.688 21.5327L150.687 21.532L150.434 21.7484ZM156.224 21.7861L155.977 21.5622L156.224 21.7861ZM156.268 15.2628L156.005 15.4677L156.005 15.468L156.268 15.2628ZM150.295 15.012L150.541 15.2377L150.541 15.2374L150.295 15.012ZM149.162 22.4963L148.927 22.7324L148.927 22.7326L149.162 22.4963ZM157.342 22.4658L157.107 22.2301L157.107 22.2302L157.342 22.4658ZM158.61 16.1235L158.299 16.2438L158.299 16.2443L158.61 16.1235ZM158.61 16.1233L158.921 16.003L158.921 16.0023L158.61 16.1233ZM157.437 14.2695L157.197 14.5017L157.199 14.5029L157.437 14.2695ZM149.198 14.2943L149.431 14.5329L149.432 14.5321L149.198 14.2943ZM149.198 14.2943L148.965 14.0557L148.964 14.0566L149.198 14.2943ZM149.162 22.4962L149.397 22.2601L149.397 22.2599L149.162 22.4962ZM149.632 22.0237L149.397 22.2599L149.397 22.26L149.632 22.0237ZM149.632 22.0236L149.867 21.7875L149.867 21.7873L149.632 22.0236ZM149.665 14.7699L149.432 14.5321L149.432 14.5321L149.665 14.7699ZM156.959 14.7344L156.72 14.9665L156.72 14.9672L156.959 14.7344ZM156.96 14.7357L156.722 14.9685L156.722 14.9692L156.96 14.7357ZM157.989 16.3653L158.299 16.2445L158.299 16.2443L157.989 16.3653ZM156.871 21.9945L157.105 22.2313L157.107 22.2302L156.871 21.9945ZM156.871 21.9946L156.636 21.7578L156.635 21.759L156.871 21.9946ZM150.688 21.5324C151.352 22.3152 152.217 22.7066 153.283 22.7066V22.0399C152.404 22.0399 151.728 21.7281 151.196 21.1012L150.688 21.5324ZM150.687 21.532L150.688 21.5328L151.196 21.1007L151.195 21.0999L150.687 21.532ZM149.495 18.2027C149.495 19.491 149.892 20.6008 150.688 21.5324L151.195 21.0995C150.508 20.2954 150.162 19.3414 150.162 18.2027H149.495ZM150.541 15.2377C149.843 15.9955 149.495 16.9841 149.495 18.2027H150.162C150.162 17.1187 150.468 16.3018 151.031 15.689L150.541 15.2377ZM150.541 15.2374L150.541 15.2376L151.031 15.689L151.031 15.6888L150.541 15.2374ZM153.213 14.1003C152.128 14.1003 151.237 14.4794 150.541 15.2377L151.032 15.6885C151.594 15.076 152.303 14.7669 153.213 14.7669V14.1003ZM156.005 15.468C155.294 14.5564 154.364 14.1003 153.213 14.1003V14.7669C154.157 14.7669 154.894 15.1273 155.479 15.8779L156.005 15.468ZM156.005 15.4683L156.005 15.468L155.479 15.8778L155.48 15.8781L156.005 15.4683ZM157.016 18.5895C157.016 17.3702 156.679 16.3303 156.005 15.468L155.48 15.8784C156.052 16.6102 156.349 17.5011 156.349 18.5895H157.016ZM155.977 21.5622C156.669 20.7991 157.016 19.8081 157.016 18.5895H156.349C156.349 19.6744 156.045 20.4956 155.483 21.1142L155.977 21.5622ZM153.283 22.7066C154.387 22.7066 155.285 22.3252 155.977 21.5622L155.483 21.1142C154.927 21.7272 154.214 22.0399 153.283 22.0399V22.7066ZM153.283 22.7066C152.217 22.7066 151.352 22.3154 150.688 21.5327L150.18 21.964C150.976 22.9026 152.03 23.3732 153.283 23.3732V22.7066ZM155.977 21.5622C155.285 22.3253 154.387 22.7066 153.283 22.7066V23.3732C154.56 23.3732 155.642 22.9234 156.471 22.0101L155.977 21.5622ZM157.016 18.5895C157.016 19.8081 156.669 20.7991 155.977 21.5622L156.471 22.0101C157.294 21.1025 157.682 19.9415 157.682 18.5895H157.016ZM156.005 15.468C156.679 16.3303 157.016 17.3702 157.016 18.5895H157.682C157.682 17.2393 157.306 16.0504 156.531 15.0576L156.005 15.468ZM153.213 14.1003C154.364 14.1003 155.294 14.5563 156.005 15.4677L156.531 15.0578C155.694 13.9854 154.57 13.4336 153.213 13.4336V14.1003ZM150.541 15.2374C151.237 14.4793 152.128 14.1003 153.213 14.1003V13.4336C151.953 13.4336 150.88 13.8826 150.05 14.7865L150.541 15.2374ZM149.495 18.2027C149.495 16.9841 149.843 15.9955 150.541 15.2377L150.05 14.7863C149.219 15.6895 148.828 16.8498 148.828 18.2027H149.495ZM150.687 21.532C149.892 20.6005 149.495 19.4908 149.495 18.2027H148.828C148.828 19.6403 149.276 20.9059 150.18 21.9648L150.687 21.532ZM153.227 23.8233C151.721 23.8233 150.444 23.3022 149.397 22.26L148.927 22.7326C150.102 23.9018 151.549 24.49 153.227 24.49V23.8233ZM157.107 22.2302C156.045 23.2925 154.752 23.8233 153.227 23.8233V24.49C154.925 24.49 156.389 23.891 157.578 22.7014L157.107 22.2302ZM158.699 18.329C158.699 19.8677 158.168 21.168 157.107 22.2301L157.578 22.7014C158.768 21.5109 159.366 20.0396 159.366 18.329H158.699ZM158.299 16.2443C158.566 16.9293 158.699 17.6241 158.699 18.329H159.366C159.366 17.5377 159.216 16.7612 158.921 16.0027L158.299 16.2443ZM158.299 16.2436L158.299 16.2438L158.921 16.0032L158.921 16.003L158.299 16.2436ZM157.199 14.5029C157.666 14.9794 158.033 15.5598 158.299 16.2443L158.921 16.0023C158.625 15.2425 158.211 14.5832 157.675 14.0361L157.199 14.5029ZM153.423 12.9539C154.939 12.9539 156.196 13.4698 157.197 14.5016L157.676 14.0374C156.542 12.8686 155.108 12.2872 153.423 12.2872V12.9539ZM149.432 14.5321C150.503 13.4801 151.833 12.9539 153.423 12.9539V12.2872C151.67 12.2872 150.168 12.8742 148.965 14.0565L149.432 14.5321ZM149.431 14.5329L149.431 14.5329L148.965 14.0557L148.965 14.0558L149.431 14.5329ZM147.825 18.4479C147.825 16.8898 148.361 15.5845 149.432 14.5321L148.964 14.0566C147.76 15.2396 147.159 16.7186 147.159 18.4479H147.825ZM149.397 22.2599C148.349 21.2175 147.825 19.9471 147.825 18.4479H147.159C147.159 20.1216 147.751 21.563 148.927 22.7325L149.397 22.2599ZM148.927 22.7324L148.927 22.7324L149.397 22.2601L149.397 22.2601L148.927 22.7324ZM149.397 22.26C150.444 23.3022 151.721 23.8233 153.227 23.8233V23.1567C151.893 23.1567 150.787 22.7026 149.867 21.7874L149.397 22.26ZM149.397 22.2598L149.397 22.2599L149.867 21.7876L149.867 21.7875L149.397 22.2598ZM147.825 18.4479C147.825 19.9471 148.349 21.2176 149.397 22.26L149.867 21.7873C148.947 20.8721 148.492 19.7725 148.492 18.4479H147.825ZM149.432 14.5321C148.361 15.5845 147.825 16.8898 147.825 18.4479H148.492C148.492 17.061 148.961 15.9295 149.899 15.0077L149.432 14.5321ZM153.423 12.9539C151.833 12.9539 150.503 13.4801 149.432 14.5321L149.899 15.0077C150.837 14.0858 151.997 13.6205 153.423 13.6205V12.9539ZM157.198 14.5023C156.197 13.47 154.939 12.9539 153.423 12.9539V13.6205C154.769 13.6205 155.851 14.0711 156.72 14.9665L157.198 14.5023ZM157.199 14.5029L157.197 14.5016L156.72 14.9672L156.722 14.9685L157.199 14.5029ZM158.299 16.2443C158.033 15.5595 157.666 14.9789 157.198 14.5023L156.722 14.9692C157.12 15.3751 157.441 15.877 157.678 16.4863L158.299 16.2443ZM158.699 18.329C158.699 17.6242 158.566 16.9295 158.299 16.2445L157.678 16.4861C157.916 17.0976 158.033 17.7106 158.033 18.329H158.699ZM157.107 22.2302C158.168 21.168 158.699 19.8677 158.699 18.329H158.033C158.033 19.6957 157.568 20.8251 156.635 21.7589L157.107 22.2302ZM157.105 22.2313L157.105 22.2313L156.636 21.7578L156.636 21.7578L157.105 22.2313ZM153.227 23.8233C154.752 23.8233 156.045 23.2925 157.107 22.2302L156.635 21.759C155.701 22.6939 154.578 23.1567 153.227 23.1567V23.8233Z" fill="#616161"/>
<path d="M166.03 18.0483C165.389 18.6224 164.62 18.9096 163.722 18.9096C163.347 18.9096 162.992 18.8405 162.655 18.7018C163.488 18.5929 164.124 18.3407 164.564 17.9449C165.078 17.4798 165.336 16.9161 165.336 16.2529C165.336 15.6493 165.143 15.1745 164.76 14.8283C164.377 14.4821 163.853 14.3087 163.189 14.3087C162.842 14.3087 162.496 14.3534 162.15 14.4426V21.7269C162.15 22.2421 162.204 22.6286 162.312 22.8865C162.419 23.1442 162.623 23.372 162.922 23.5702H160.004C160.322 23.3914 160.523 23.0988 160.607 22.6916C160.644 22.5129 160.663 22.136 160.663 21.5601V15.2317C160.663 14.6563 160.644 14.2789 160.607 14.1002C160.523 13.6933 160.322 13.4006 160.004 13.2219H161.421C161.505 13.2219 161.687 13.2219 161.968 13.2219C162.239 13.2219 162.609 13.2219 163.076 13.2219H163.54C164.334 13.2219 164.985 13.3506 165.49 13.608C165.948 13.8456 166.313 14.1772 166.584 14.6032C166.856 15.0288 166.991 15.4839 166.991 15.9692C166.991 16.7812 166.671 17.4742 166.03 18.0483Z" fill="#616161"/>
<path d="M166.03 18.0483C165.389 18.6224 164.62 18.9096 163.722 18.9096C163.347 18.9096 162.992 18.8405 162.655 18.7018C163.488 18.5929 164.124 18.3407 164.564 17.9449C165.078 17.4798 165.336 16.9161 165.336 16.2529C165.336 15.6493 165.143 15.1745 164.76 14.8283C164.377 14.4821 163.853 14.3087 163.189 14.3087C162.842 14.3087 162.496 14.3534 162.15 14.4426V21.7269C162.15 22.2421 162.204 22.6286 162.312 22.8865C162.419 23.1442 162.623 23.372 162.922 23.5702H160.004C160.322 23.3914 160.523 23.0988 160.607 22.6916C160.644 22.5129 160.663 22.136 160.663 21.5601V15.2317C160.663 14.6563 160.644 14.2789 160.607 14.1002C160.523 13.6933 160.322 13.4006 160.004 13.2219H161.421C161.505 13.2219 161.687 13.2219 161.968 13.2219C162.239 13.2219 162.609 13.2219 163.076 13.2219H163.54C164.334 13.2219 164.985 13.3506 165.49 13.608C165.948 13.8456 166.313 14.1772 166.584 14.6032C166.856 15.0288 166.991 15.4839 166.991 15.9692V15.9692C166.991 16.7812 166.671 17.4742 166.03 18.0483Z" stroke="#616161" stroke-width="0.666667" stroke-linecap="round" stroke-linejoin="round"/>
<path fill-rule="evenodd" clip-rule="evenodd" d="M171.001 13.3473V14.9828H170.814V13.5221H170.806L170.25 14.9828H170.138L169.581 13.5221H169.574V14.9828H169.387V13.3473H169.708L170.201 14.6734L170.679 13.3473H171.001ZM167.914 13.5221V13.3473H169.11V13.5221H168.606V14.9828H168.419V13.5221H167.914Z" fill="#4A81CB"/>
<path d="M103.566 2.79949C103.652 2.59562 103.819 2.42435 103.988 2.27517C104.062 2.20918 104.141 2.14427 104.218 2.08136C104.229 2.07212 104.241 2.06293 104.252 2.05378C104.34 1.9814 104.424 1.91135 104.5 1.84031C104.656 1.69567 104.763 1.56217 104.804 1.42575C104.842 1.30074 104.83 1.15082 104.695 0.951733L104.819 0.867447L104.695 0.951725C104.522 0.696205 104.287 0.490463 104.014 0.334488L104.014 0.334454L102.994 5.69285C102.991 4.71974 103.333 3.74471 103.705 2.85744L103.566 2.79951C103.566 2.79951 103.566 2.7995 103.566 2.79949ZM103.566 2.79949C103.183 3.71416 102.82 4.74525 102.845 5.78073L102.589 5.932L102.867 5.97291M103.566 2.79949L102.867 5.97291M102.867 5.97291C102.894 6.03511 102.945 6.07465 102.992 6.09615C103.05 6.12364 103.117 6.13204 103.171 6.13383C103.228 6.1357 103.286 6.13067 103.335 6.12199C103.379 6.11426 103.436 6.10057 103.478 6.07543C103.484 6.07176 103.49 6.0681 103.497 6.06443M102.867 5.97291L103.497 6.06443M103.497 6.06443L103.592 6.07827L103.589 6.01056" fill="#616161" stroke="#616161" stroke-width="0.3"/>
<path d="M84.0026 55.3487L83.9556 55.3753V55.3513C83.1759 55.3868 82.3979 55.0858 81.9548 54.3822L84.0026 55.3487ZM84.0026 55.3487C84.1064 55.3422 84.2101 55.3297 84.3129 55.3114L84.3135 55.3113C84.3151 55.311 84.317 55.3107 84.3193 55.3103C84.3414 55.3064 84.3929 55.2974 84.4397 55.2791C84.4658 55.2688 84.5018 55.2516 84.5333 55.2219C84.5677 55.1894 84.5993 55.1387 84.5993 55.0719V55.0618V55.0518V55.0417V55.0317V55.0216V55.0116V55.0015V54.9915V54.9814V54.9714V54.9613V54.9513V54.9412V54.9312V54.9211V54.9111V54.901V54.891V54.8809V54.8709V54.8608V54.8508V54.8407V54.8307V54.8206V54.8106V54.8005V54.7905V54.7804V54.7704V54.7603V54.7503V54.7402V54.7302V54.7201V54.7101V54.7V54.69V54.6799V54.6698V54.6598V54.6497V54.6397V54.6296V54.6196V54.6095V54.5995V54.5894V54.5794V54.5693V54.5593V54.5492V54.5392V54.5291V54.5191V54.509V54.499V54.4889V54.4789V54.4688V54.4588V54.4487V54.4387V54.4286V54.4186V54.4085V54.3985V54.3884V54.3784V54.3683V54.3583V54.3482V54.3382V54.3281V54.3181V54.308V54.298V54.2879V54.2779V54.2678V54.2578V54.2477V54.2377V54.2276V54.2176V54.2075V54.1975V54.1874V54.1774V54.1673V54.1573V54.1472V54.1372V54.1271V54.1171V54.107V54.097V54.0869V54.0769V54.0668V54.0568V54.0467V54.0366V54.0266V54.0165V54.0065V53.9964V53.9864V53.9763V53.9663V53.9562V53.9462V53.9361V53.9261V53.916V53.906V53.8959V53.8859V53.8758V53.8658V53.8557V53.8457V53.8356V53.8256V53.8155V53.8055V53.7954V53.7854V53.7753V53.7653V53.7552V53.7452V53.7351V53.7251V53.715V53.705V53.6949V53.6849V53.6748V53.6648V53.6547V53.6447V53.6346V53.6246V53.6145V53.6045V53.5944V53.5843V53.5743V53.5642V53.5542V53.5441V53.5341V53.524V53.514V53.5039V53.4939V53.4838V53.4738V53.4637V53.4537V53.4436V53.4336V53.4235V53.4135V53.4034V53.3934V53.3833V53.3733V53.3632V53.3532V53.3431V53.3331V53.323V53.313V53.3029V53.2929V53.2828V53.2728V53.2627V53.2527V53.2426V53.2326V53.2225V53.2124V53.2024V53.1923V53.1823V53.1722V53.1622V53.1521V53.1421V53.132V53.122V53.1119V53.1019V53.0918V53.0818V53.0717V53.0617V53.0516V53.0416V53.0315V53.0215V53.0114V53.0014V52.9913V52.9813V52.9712V52.9612V52.9511V52.9411V52.931V52.921V52.9109V52.9009V52.8908V52.8808V52.8707V52.8607V52.8506V52.8405V52.8305V52.8204V52.8104V52.8003V52.7903V52.7802V52.7702V52.7601V52.7501V52.74V52.73V52.7199V52.7099V52.6998V52.6898V52.6797V52.6697V52.6596V52.6496V52.6395V52.6295V52.6194V52.6094V52.5993V52.5893V52.5792V52.5692V52.5591V52.5491V52.539V52.529V52.5189V52.5089V52.4988V52.4887V52.4787V52.4686V52.4586V52.4485V52.4385V52.4284V52.4184V52.4083V52.3983V52.3882V52.3782V52.3681V52.3581V52.348V52.338V52.3279V52.3179V52.3078V52.2978V52.2877V52.2777V52.2676V52.2576V52.2475V52.2375V52.2274V52.2174V52.2073V52.1973V52.1872V52.1772V52.1671V52.157V52.147V52.1369V52.1269V52.1168V52.1068V52.0967V52.0867V52.0766V52.0666V52.0565V52.0465V52.0364V52.0264V52.0163V52.0063V51.9962V51.9862V51.9761V51.9661V51.956V51.946V51.9359V51.9259V51.9158V51.9058V51.8957V51.8857V51.8756V51.8656V51.8555V51.8455V51.8354V51.8254V51.8153V51.8052V51.7952V51.7851V51.7751V51.765V51.755V51.7449V51.7349V51.7248V51.7148V51.7047V51.6947V51.6846V51.6746V51.6645V51.6545V51.6444V51.6344V51.6243V51.6143V51.6042V51.5942V51.5841V51.5741V51.564V51.554V51.5439V51.5339V51.5238V51.5138V51.5037V51.4937V51.4836V51.4736V51.4635V51.4535V51.4434V51.4333V51.4233V51.4132V51.4032V51.3931V51.3831V51.373V51.363V51.3529V51.3429V51.3328V51.3228V51.3127V51.3027V51.2926V51.2826V51.2725V51.2625V51.2524V51.2424V51.2323V51.2223V51.2122V51.2022V51.1921V51.1821V51.172V51.162V51.1519V51.1419V51.1318V51.1218V51.1117V51.1017V51.0916V51.0816V51.0715V51.0615V51.0514V51.0414V51.0313V51.0212V51.0112V51.0011V50.9911V50.981V50.971V50.9609V50.9509V50.9408V50.9308V50.9207V50.9107V50.9006V50.8906V50.8805V50.8705V50.8604V50.8504V50.8403V50.8303V50.8202V50.8102V50.8001V50.7901V50.78V50.77V50.7599V50.7499V50.7398V50.7298V50.7197V50.7097V50.6996V50.6896V50.6795V50.6695V50.6594V50.6494V50.6393V50.6293V50.6192V50.6092V50.5991V50.5891V50.579V50.569V50.5589V50.5489V50.5388V50.5287V50.5187V50.5086V50.4986V50.4885V50.4785V50.4684V50.4584V50.4483V50.4383V50.4282V50.4182V50.4081V50.3981V50.388V50.378V50.3679V50.3579V50.3478V50.3378V50.3277V50.3177V50.3076V50.2976V50.2875V50.2775V50.2674V50.2574V50.2473V50.2373V50.2272V50.2172V50.2071V50.1971V50.187V50.177V50.1669V50.1569V50.1468V50.1368V50.1267V50.1167V50.1066V50.0966V50.0865V50.0765V50.0664V50.0564V50.0463V50.0363V50.0262V50.0162V50.0061V49.9961V49.986V49.976V49.9659V49.9559V49.9458V49.9358V49.9257C84.5993 49.8592 84.5649 49.81 84.5287 49.7808C84.4961 49.7545 84.4598 49.7416 84.4328 49.7347C84.3777 49.7206 84.3154 49.72 84.2613 49.7258C84.2069 49.7317 84.1448 49.7459 84.0915 49.773C84.0472 49.7954 83.9556 49.8555 83.9556 49.9718V49.9818V49.9919V50.0019V50.012V50.022V50.0321V50.0421V50.0522V50.0622V50.0723V50.0823V50.0924V50.1024V50.1125V50.1225V50.1326V50.1426V50.1527V50.1627V50.1728V50.1828V50.1929V50.203V50.213V50.2231V50.2331V50.2432V50.2532V50.2633V50.2733V50.2834V50.2934V50.3035V50.3135V50.3236V50.3336V50.3437V50.3537V50.3638V50.3738V50.3839V50.3939V50.404V50.414V50.4241V50.4341V50.4442V50.4542V50.4643V50.4743V50.4844V50.4944V50.5045V50.5145V50.5246V50.5346V50.5447V50.5547V50.5648V50.5748V50.5849V50.5949V50.605V50.615V50.6251V50.6351V50.6452V50.6553V50.6653V50.6754V50.6854V50.6955V50.7055V50.7156V50.7256V50.7357V50.7457V50.7558V50.7658V50.7759V50.7859V50.796V50.806V50.8161V50.8261V50.8362V50.8462V50.8563V50.8663V50.8764V50.8864V50.8965V50.9065V50.9166V50.9266V50.9367V50.9467V50.9568V50.9668V50.9769V50.9869V50.997V51.007V51.0171V51.0271V51.0372V51.0472V51.0573V51.0673V51.0774V51.0874V51.0975V51.1075V51.1176V51.1276V51.1377V51.1477V51.1578V51.1679V51.1779V51.188V51.198V51.2081V51.2181V51.2282V51.2382V51.2483V51.2583V51.2684V51.2784V51.2885V51.2985V51.3086V51.3186V51.3287V51.3387V51.3488V51.3588V51.3689V51.3789V51.389V51.399V51.4091V51.4191V51.4292V51.4392V51.4493V51.4593V51.4694V51.4794V51.4895V51.4995V51.5096V51.5196V51.5297V51.5397V51.5498V51.5598V51.5699V51.5799V51.59V51.6V51.6101V51.6201V51.6302V51.6402V51.6503V51.6603V51.6704V51.6804V51.6905V51.7005V51.7106V51.7207V51.7307V51.7408V51.7508V51.7609V51.7709V51.781V51.791V51.8011V51.8111V51.8212V51.8312V51.8413V51.8513V51.8614V51.8714V51.8815V51.8915V51.9016V51.9116V51.9217V51.9317V51.9418V51.9518V51.9619V51.9719V51.982V51.992V52.0021V52.0121V52.0222V52.0322V52.0423V52.0523V52.0624V52.0724V52.0825V52.0925V52.1026V52.1126V52.1227V52.1327V52.1428V52.1528V52.1629V52.1729V52.183V52.193V52.2031V52.2131V52.2232V52.2333V52.2433V52.2534V52.2634V52.2735V52.2835V52.2936V52.3036V52.3137V52.3237V52.3338V52.3438V52.3539V52.3639V52.374V52.384V52.3941V52.4041V52.4142V52.4242V52.4343V52.4443V52.4544V52.4644V52.4745V52.4845V52.4946V52.5046V52.5147V52.5247V52.5348V52.5448V52.5549V52.5649V52.575V52.585V52.5951V52.6051V52.6152V52.6252V52.6353V52.6453V52.6554V52.6654V52.6755V52.6855V52.6956V52.7057V52.7157V52.7258V52.7358V52.7459V52.7559V52.766V52.776V52.7861V52.7961V52.8062V52.8162V52.8263V52.8363V52.8464V52.8564V52.8665V52.8765V52.8866V52.8966V52.9067V52.9167V52.9268V52.9368V52.9469V52.9569V52.967V52.977V52.9871V52.9971V53.0072V53.0172V53.0273V53.0373V53.0474V53.0574V53.0675V53.0775V53.0876V53.0976V53.1077V53.1177V53.1278V53.1379V53.1479V53.158V53.168V53.1781V53.1881V53.1982V53.2082V53.2183V53.2283V53.2384V53.2484V53.2585V53.2685V53.2786V53.2886V53.2987V53.3087V53.3188V53.3288V53.3389V53.3489V53.359V53.369V53.3791V53.3891V53.3992V53.4092V53.4193V53.4293V53.4394V53.4494V53.4595V53.4695V53.4796V53.4896V53.4997V53.5098V53.5198V53.5299V53.5399V53.55V53.56V53.5701V53.5801V53.5902V53.6002V53.6103V53.6203V53.6304V53.6404V53.6505V53.6605V53.6706V53.6806V53.6907V53.7007V53.7108V53.7208V53.7309V53.7409V53.751V53.761V53.7711V53.7811V53.7912V53.8012V53.8113V53.8213V53.8314V53.8415V53.8515V53.8616V53.8716V53.8817V53.8917V53.9018V53.9118V53.9219V53.9319V53.942V53.952V53.9621V53.9721V53.9822V53.9922V54.0023V54.0123V54.0224V54.0324V54.0425V54.0525V54.0626V54.0726V54.0827V54.0927V54.1028V54.1128V54.1229V54.133V54.143V54.1531V54.1631V54.1732V54.1832V54.1933V54.2033V54.2134V54.2234V54.2335V54.2435V54.2536V54.2636V54.2737V54.2837V54.2938V54.3038V54.3139V54.3239V54.334V54.344V54.3541V54.3641V54.3742V54.3843V54.3943V54.4044V54.4144V54.4245V54.4345V54.4446V54.4546V54.4647V54.4747V54.4848V54.4948V54.5049V54.5149V54.525V54.535V54.5451V54.5551V54.5652V54.5752V54.5853V54.5953V54.6054V54.6155V54.6255V54.6356V54.6456V54.6557V54.6657V54.6758V54.6858V54.6959V54.7059V54.716V54.726V54.7361V54.7461V54.7562V54.7662V54.7763V54.7863V54.7964V54.8064V54.8165V54.8265V54.8366V54.8467V54.8567V54.8668V54.8768V54.8869V54.8969V54.9064C83.2225 54.9193 82.5667 54.4782 82.3818 53.7406L84.0026 55.3487ZM81.8244 49.9232L81.6744 49.9257C81.673 49.8348 81.3289 49.8657 81.3306 49.9718C81.3462 50.9195 81.484 51.8536 81.6629 52.7829L81.9547 54.3821C81.8081 54.1498 81.7218 53.8685 81.6605 53.595C81.6225 53.4254 81.5919 53.2467 81.5637 53.0816C81.5472 52.9854 81.5315 52.8938 81.5156 52.8113L81.5156 52.8113C81.3359 51.8781 81.1965 50.9344 81.1807 49.9742L81.1807 49.9742C81.1787 49.8567 81.2715 49.7958 81.3151 49.7735C81.3683 49.7463 81.4302 49.7319 81.4847 49.7258C81.5388 49.7197 81.6013 49.7202 81.6567 49.7342C81.6839 49.7411 81.7203 49.754 81.753 49.7802C81.7891 49.8092 81.8233 49.8576 81.8244 49.9232ZM81.8244 49.9232C81.8456 51.2042 82.0689 52.4908 82.3818 53.7406L81.8244 49.9232Z" fill="#616161" stroke="#616161" stroke-width="0.3"/>
<path d="M62.8579 42.1373L62.8579 42.1373C63.0419 42.4741 63.1577 42.6797 63.3351 42.815C63.5016 42.942 63.7153 43.0009 64.0428 43.0912C64.0607 43.0962 64.0789 43.1012 64.0974 43.1063L64.0974 43.1063C64.3283 43.1701 64.5882 43.1736 64.8337 43.1639C64.9364 43.1598 65.0342 43.1536 65.1283 43.1477C65.2699 43.1388 65.4031 43.1304 65.5321 43.1304C65.5549 43.1304 65.587 43.1259 65.6169 43.1158C65.6319 43.1107 65.6574 43.1006 65.682 43.0807C65.7078 43.0598 65.7456 43.0162 65.7456 42.9495V42.9494C65.7454 42.7474 65.6895 42.5544 65.625 42.3788C65.597 42.3024 65.5662 42.2265 65.5368 42.154C65.5324 42.143 65.528 42.1321 65.5236 42.1213C65.4898 42.0379 65.4585 41.9589 65.4325 41.8818M62.8579 42.1373L64.9612 41.8607C64.7475 41.1653 64.6278 40.4645 64.5727 39.7392M62.8579 42.1373C62.0836 40.7192 62.0102 38.8291 62.1104 37.2823M62.8579 42.1373L62.1104 37.2823M65.4325 41.8818L65.2903 41.9298M65.4325 41.8818L65.2903 41.9298M65.4325 41.8818C65.2071 41.2142 65.1058 40.5084 65.0514 39.7969L65.0514 39.7969C65.0472 39.7422 65.021 39.7011 64.9985 39.6751C64.9755 39.6488 64.9486 39.6288 64.9244 39.614C64.876 39.5844 64.8185 39.5633 64.7652 39.551C64.7142 39.5392 64.6495 39.5314 64.5897 39.5435C64.5597 39.5496 64.5164 39.5637 64.4797 39.5992C64.4376 39.64 64.4189 39.6951 64.4231 39.7506C64.4231 39.7506 64.4231 39.7506 64.4231 39.7506L64.5727 39.7392M65.2903 41.9298C65.3215 42.0222 65.3595 42.1158 65.3979 42.2106C65.4952 42.4507 65.5953 42.6978 65.5956 42.9495L64.5727 39.7392M65.2903 41.9298C65.0593 41.2454 64.9567 40.5256 64.9018 39.8083C64.8946 39.7132 64.5643 39.63 64.5727 39.7392M62.1104 37.2823C62.1104 37.2822 62.1104 37.2821 62.1104 37.282L62.2601 37.2917L62.1104 37.2823Z" fill="#616161" stroke="#616161" stroke-width="0.3"/>
<path d="M62.9445 24.7418C62.4183 25.2671 62.6642 25.5177 63.0343 25.9796C64.6806 28.0353 66.631 29.8507 68.6768 31.5006C70.3488 32.8492 72.1344 34.0518 73.9937 35.1249C75.1952 35.8186 76.523 36.6843 77.8793 37.0305C80.8433 37.7871 84.115 37.1995 86.9933 36.3819C89.301 35.7266 91.4901 34.6425 93.7157 33.7611C97.0803 32.4285 100.526 31.0501 104.069 30.2653C105.22 30.0103 104.301 29.4639 103.567 29.6264C100.165 30.3801 96.876 31.6363 93.6328 32.8896C91.5633 33.6893 89.5053 34.5229 87.4692 35.4033C85.576 36.222 83.2867 36.5873 81.2332 36.6504C80.4427 36.6743 79.452 36.5851 78.8436 36.4013C78.204 36.2074 77.5824 35.8155 76.9896 35.5113C75.9008 34.9535 74.8438 34.3347 73.8105 33.6808C72.0796 32.5861 70.4372 31.3489 68.8933 30.0051C67.3802 28.6884 65.9518 27.2532 64.6917 25.6911C64.3274 25.2395 64.1904 25.2277 64.6646 24.8062C65.3455 24.2005 66.2664 23.8008 67.0989 23.4459C67.4135 23.3119 67.375 23.0575 67.0684 22.9565C66.681 22.8289 66.2148 22.8751 65.8443 23.0331C64.8429 23.4599 63.7225 23.9648 62.9445 24.7418Z" fill="#616161"/>
<path d="M117.209 26.1357C117.856 26.4998 118.502 26.864 119.149 27.2283C119.347 27.3398 119.119 27.1346 119.212 27.2904C119.18 27.2385 118.593 27.3324 118.398 27.3493C116.73 27.495 115.063 27.6524 113.398 27.8229C112.322 27.9329 111.245 28.0487 110.172 28.1846C109.525 28.2666 108.811 28.3123 108.192 28.5369C107.882 28.6497 107.853 28.8807 108.163 29.0267C108.514 29.1921 109.019 29.2334 109.387 29.0999C109.795 28.9518 110.703 28.8726 111.306 28.7978C112.499 28.6494 113.696 28.5284 114.892 28.4098C115.937 28.3066 116.982 28.209 118.028 28.1149C118.754 28.0492 119.528 28.0552 120.231 27.8689C122.033 27.3913 119.538 26.325 119.007 26.0258C117.458 25.1529 115.909 24.2799 114.359 23.4071C113.971 23.1887 112.307 23.3739 113.106 23.8237C114.474 24.5943 115.841 25.3648 117.209 26.1357Z" fill="#616161"/>
<path d="M62.1258 28.5146C62.0339 29.9572 62.0599 31.6472 62.7703 32.9471C63.421 34.1363 64.2782 35.2083 65.1925 36.2032C66.2838 37.3908 67.598 38.7276 69.0348 39.4949C70.9221 40.5026 72.8091 41.5099 74.6964 42.5176C75.7713 43.0917 76.8463 43.6653 77.9216 44.2395C78.3819 44.485 78.8592 44.8 79.3615 44.9519C82.2571 45.8273 85.4438 45.9189 88.4321 45.6567C90.8949 45.441 93.1454 44.7649 95.4982 44.0823C99.772 42.8429 104.023 41.5446 108.287 40.2743C110.773 39.5338 113.3 38.9722 115.796 38.2735C117.017 37.9316 118.231 37.5531 119.413 37.0928C120.162 36.8011 121.327 36.4311 121.73 35.6638C121.929 35.2864 120.328 34.6699 120.073 35.1548C119.878 35.5243 119.348 35.7547 118.993 35.9277C118.318 36.2566 117.604 36.5087 116.895 36.7522C115.761 37.1415 114.606 37.4737 113.446 37.7765C110.136 38.6399 106.845 39.5022 103.583 40.5393C99.7293 41.7652 95.8229 42.8287 91.9393 43.955C88.8671 44.8461 85.6655 45.1246 82.4784 44.8152C81.4812 44.7181 80.3962 44.5345 79.5651 44.2886C79.4725 44.2613 80.1766 44.5866 79.6719 44.3175C79.3254 44.1325 78.9792 43.948 78.6334 43.7628C76.3295 42.5331 74.0255 41.3028 71.7216 40.0728C71.1486 39.7668 70.5752 39.4609 70.0025 39.155C70.3241 39.3268 69.9179 39.0891 69.8884 39.0676C69.723 38.9486 69.5589 38.8276 69.3952 38.7058C68.9203 38.3547 68.4701 37.9707 68.0271 37.5809C67.1617 36.8184 66.3784 35.9655 65.6604 35.064C64.59 33.7199 63.9517 32.5178 63.7925 30.7702C63.6368 29.0626 63.8747 27.2357 64.2945 25.575C64.4197 25.0789 62.7537 24.6023 62.6364 25.0662C62.352 26.1915 62.1997 27.3577 62.1258 28.5146Z" fill="#616161"/>
<path d="M61.4366 33.6727C61.3336 34.9451 61.3461 36.6035 62.1984 37.6514C63.2386 38.9302 64.4645 40.074 65.6976 41.1604C68.5131 43.6412 71.6533 45.7522 74.9642 47.5112C75.9792 48.0506 77.0173 48.5452 78.0677 49.0117C78.8478 49.3586 79.6976 49.821 80.5356 49.9978C81.9068 50.2875 83.321 50.4096 84.7185 50.4676C86.4668 50.5397 88.4061 50.5872 90.1065 50.1345C91.3531 49.8026 92.5953 49.4539 93.8319 49.0877C95.1576 48.695 96.5281 48.3166 97.7838 47.7307C98.1726 47.549 97.7841 47.7026 97.8431 47.6822C97.9249 47.654 98.0068 47.626 98.0894 47.5979C98.4751 47.4657 98.8615 47.3349 99.2482 47.2048C102.258 46.1907 105.28 45.2125 108.324 44.3058C110.634 43.6176 112.966 43.1069 115.3 42.529C117.857 41.8953 121.495 40.5394 121.845 37.5102C121.881 37.2036 120.529 37.2872 120.477 37.7377C120.162 40.4676 116.8 41.6358 114.502 42.1452C111.987 42.7029 109.513 43.3419 107.044 44.0868C104.132 44.9662 101.239 45.911 98.3568 46.8858C96.381 47.5541 94.4587 48.3124 92.4461 48.8934C91.4388 49.1842 90.428 49.4633 89.4145 49.7308C88.3451 50.0127 86.976 49.9091 85.8761 49.8944C84.8601 49.881 83.8448 49.8023 82.8368 49.6787C81.3241 49.4935 80.057 48.9265 78.6629 48.2968C76.5973 47.3638 74.6056 46.2701 72.6905 45.0595C69.9696 43.3397 67.4149 41.3254 65.1308 39.0562C64.6181 38.5467 64.12 38.0212 63.6497 37.472C62.9937 36.7065 62.83 35.6878 62.7794 34.7082C62.7058 33.2864 62.9393 31.797 63.326 30.4288C63.4415 30.02 62.0884 30.127 61.9819 30.5033C61.6909 31.5331 61.523 32.608 61.4366 33.6727Z" fill="#616161"/>
<path d="M120.524 37.4311C120.535 37.8883 121.864 38.1155 121.856 37.8171C121.77 34.2943 121.683 30.7713 121.596 27.2485C121.585 26.7911 120.256 26.5638 120.264 26.8623C120.35 30.3852 120.437 33.9081 120.524 37.4311Z" fill="#616161"/>
<path fill-rule="evenodd" clip-rule="evenodd" d="M70.0188 43.5603L69.136 42.8666C69.136 42.8666 69.2602 40.1783 69.86 39.3111L70.2395 39.7447C70.2395 39.7447 69.7982 42.2595 70.0188 43.5603Z" fill="#616161"/>
</g>
</svg>
